<mxfile host="app.diagrams.net" agent="Mozilla/5.0 (Windows NT 10.0; Win64; x64) AppleWebKit/537.36 (KHTML, like Gecko) Chrome/131.0.0.0 Safari/537.36" version="24.8.8">
  <diagram name="Strona-1" id="0cRk-EzxOKH1pTT7EQ4G">
    <mxGraphModel dx="1434" dy="756" grid="1" gridSize="10" guides="1" tooltips="1" connect="1" arrows="1" fold="1" page="1" pageScale="1" pageWidth="827" pageHeight="1169" math="0" shadow="0">
      <root>
        <mxCell id="0" />
        <mxCell id="1" parent="0" />
        <mxCell id="a-38s5Jq4CYPoX5IpqrW-13" value="" style="rounded=0;whiteSpace=wrap;html=1;dashed=1;" vertex="1" parent="1">
          <mxGeometry x="20" y="815" width="240" height="135" as="geometry" />
        </mxCell>
        <mxCell id="35dKP0a0qPvihtCSCPD3-13" value="&lt;b&gt;Google &lt;/b&gt;Cloud Platform" style="fillColor=#F6F6F6;strokeColor=none;shadow=0;gradientColor=none;fontSize=14;align=left;spacing=10;fontColor=#717171;9E9E9E;verticalAlign=top;spacingTop=-4;fontStyle=0;spacingLeft=40;html=1;whiteSpace=wrap;movable=1;resizable=1;rotatable=1;deletable=1;editable=1;locked=0;connectable=1;dashed=1;dashPattern=1 1;container=0;" parent="1" vertex="1">
          <mxGeometry x="440" y="360" width="680" height="720" as="geometry" />
        </mxCell>
        <mxCell id="csZAQCQQc5b0pGnJKB85-5" value="VPC 1&lt;div&gt;Integration&lt;/div&gt;&lt;div&gt;Layer&lt;/div&gt;" style="sketch=0;outlineConnect=0;gradientColor=none;html=1;whiteSpace=wrap;fontSize=12;fontStyle=0;shape=mxgraph.aws4.group;grIcon=mxgraph.aws4.group_vpc;strokeColor=#879196;fillColor=none;verticalAlign=top;align=left;spacingLeft=30;fontColor=#879196;dashed=1;" parent="1" vertex="1">
          <mxGeometry x="503.94" y="400" width="546.06" height="60" as="geometry" />
        </mxCell>
        <mxCell id="35dKP0a0qPvihtCSCPD3-15" value="VPC 3&lt;br&gt;&lt;div&gt;Orlen Data Repository and Analysis Zone&lt;/div&gt;" style="sketch=0;outlineConnect=0;gradientColor=none;html=1;whiteSpace=wrap;fontSize=12;fontStyle=0;shape=mxgraph.aws4.group;grIcon=mxgraph.aws4.group_vpc;strokeColor=#879196;fillColor=none;verticalAlign=top;align=left;spacingLeft=30;fontColor=#879196;dashed=1;movable=1;resizable=1;rotatable=1;deletable=1;editable=1;locked=0;connectable=1;" parent="1" vertex="1">
          <mxGeometry x="500" y="620" width="550" height="360" as="geometry" />
        </mxCell>
        <mxCell id="csZAQCQQc5b0pGnJKB85-4" value="Silnik decyzyjny, transakcyjny, optymalizowany na czasy odpowiedzi" style="rounded=0;whiteSpace=wrap;html=1;fillColor=none;dashed=1;dashPattern=1 4;verticalAlign=bottom;labelPosition=center;verticalLabelPosition=top;align=left;fontColor=#666666;" parent="1" vertex="1">
          <mxGeometry x="523.94" y="515" width="500" height="80" as="geometry" />
        </mxCell>
        <mxCell id="35dKP0a0qPvihtCSCPD3-1" value="Scenariusz z Adobe: Scenariusz zakłada docelowo przejęcie całkowite kontroli nad realizacją analityki danych przez zespół Orlen. Budujemy własne silniki decyzyjne, scoringi i modele integrując się z innymi systemami przez szynę usług, która świadczy usługi np.: dostarczenia danych, wykonania analiz, uruchomienia modeli itd. itd. Obsługa kampanii dla biznesu realizowana jest w narzędziach Adobe, GCP stanowi warstwę repozytorium i miejsce dokonywania analizy na danych dla tych kampanii – czyli Adobe jest biorcą danych i usług z repozytorium." style="rounded=0;whiteSpace=wrap;html=1;strokeWidth=1;fillWeight=4;hachureGap=8;hachureAngle=45;align=left;verticalAlign=top;fontSize=14;labelBackgroundColor=none;fillColor=#f9f7ed;strokeColor=#808080;dashed=1;dashPattern=1 1;movable=1;resizable=1;rotatable=1;deletable=1;editable=1;locked=0;connectable=1;fontStyle=1;fontColor=#666666;" parent="1" vertex="1">
          <mxGeometry x="80" y="40" width="1040" height="100" as="geometry" />
        </mxCell>
        <mxCell id="35dKP0a0qPvihtCSCPD3-2" value="Web / Email" style="rounded=1;absoluteArcSize=1;arcSize=2;html=1;strokeColor=none;gradientColor=none;shadow=0;dashed=0;fontSize=12;fontColor=#9E9E9E;align=left;verticalAlign=top;spacing=10;spacingTop=-4;fillColor=#E1F5FE;movable=1;resizable=1;rotatable=1;deletable=1;editable=1;locked=0;connectable=1;" parent="1" vertex="1">
          <mxGeometry x="80" y="300" width="170" height="130" as="geometry" />
        </mxCell>
        <mxCell id="35dKP0a0qPvihtCSCPD3-3" value="Backoffice&lt;br&gt;&lt;font style=&quot;font-size: 10px&quot;&gt;Business Systems&lt;/font&gt;&lt;br&gt;" style="rounded=1;absoluteArcSize=1;arcSize=2;html=1;strokeColor=none;gradientColor=none;shadow=0;dashed=0;fontSize=12;fontColor=#9E9E9E;align=left;verticalAlign=top;spacing=10;spacingTop=-4;fillColor=#FFF8E1;movable=1;resizable=1;rotatable=1;deletable=1;editable=1;locked=0;connectable=1;" parent="1" vertex="1">
          <mxGeometry x="80" y="440" width="170" height="130" as="geometry" />
        </mxCell>
        <mxCell id="35dKP0a0qPvihtCSCPD3-4" value="Mobile Devices&lt;br&gt;&lt;font style=&quot;font-size: 10px&quot;&gt;Push Notifications&lt;/font&gt;&lt;br&gt;" style="rounded=1;absoluteArcSize=1;arcSize=2;html=1;strokeColor=none;gradientColor=none;shadow=0;dashed=0;fontSize=12;fontColor=#9E9E9E;align=left;verticalAlign=top;spacing=10;spacingTop=-4;fillColor=#F1F8E9;movable=1;resizable=1;rotatable=1;deletable=1;editable=1;locked=0;connectable=1;" parent="1" vertex="1">
          <mxGeometry x="80" y="580" width="170" height="140" as="geometry" />
        </mxCell>
        <mxCell id="35dKP0a0qPvihtCSCPD3-5" value="" style="strokeColor=#dddddd;fillColor=#ffffff;shadow=1;strokeWidth=1;rounded=1;absoluteArcSize=1;arcSize=2;labelPosition=center;verticalLabelPosition=middle;align=center;verticalAlign=bottom;spacingLeft=0;fontColor=#999999;fontSize=12;whiteSpace=wrap;spacingBottom=2;html=1;movable=1;resizable=1;rotatable=1;deletable=1;editable=1;locked=0;connectable=1;" parent="1" vertex="1">
          <mxGeometry x="90" y="490" width="70" height="70" as="geometry" />
        </mxCell>
        <mxCell id="35dKP0a0qPvihtCSCPD3-6" value="" style="dashed=0;connectable=1;html=1;fillColor=#757575;strokeColor=none;shape=mxgraph.gcp2.database;part=1;movable=1;resizable=1;rotatable=1;deletable=1;editable=1;locked=0;" parent="35dKP0a0qPvihtCSCPD3-5" vertex="1">
          <mxGeometry x="0.5" width="50" height="45" relative="1" as="geometry">
            <mxPoint x="-25" y="12.5" as="offset" />
          </mxGeometry>
        </mxCell>
        <mxCell id="35dKP0a0qPvihtCSCPD3-7" value="" style="strokeColor=#dddddd;fillColor=#ffffff;shadow=1;strokeWidth=1;rounded=1;absoluteArcSize=1;arcSize=2;labelPosition=center;verticalLabelPosition=middle;align=center;verticalAlign=bottom;spacingLeft=0;fontColor=#999999;fontSize=12;whiteSpace=wrap;spacingBottom=2;html=1;movable=1;resizable=1;rotatable=1;deletable=1;editable=1;locked=0;connectable=1;" parent="1" vertex="1">
          <mxGeometry x="170" y="490" width="70" height="70" as="geometry" />
        </mxCell>
        <mxCell id="35dKP0a0qPvihtCSCPD3-8" value="" style="dashed=0;connectable=1;html=1;fillColor=#757575;strokeColor=none;shape=mxgraph.gcp2.storage;part=1;movable=1;resizable=1;rotatable=1;deletable=1;editable=1;locked=0;" parent="35dKP0a0qPvihtCSCPD3-7" vertex="1">
          <mxGeometry x="0.5" width="50" height="40" relative="1" as="geometry">
            <mxPoint x="-25" y="15" as="offset" />
          </mxGeometry>
        </mxCell>
        <mxCell id="35dKP0a0qPvihtCSCPD3-9" value="" style="strokeColor=#dddddd;fillColor=#ffffff;shadow=1;strokeWidth=1;rounded=1;absoluteArcSize=1;arcSize=2;labelPosition=center;verticalLabelPosition=middle;align=center;verticalAlign=bottom;spacingLeft=0;fontColor=#999999;fontSize=12;whiteSpace=wrap;spacingBottom=2;html=1;movable=1;resizable=1;rotatable=1;deletable=1;editable=1;locked=0;connectable=1;" parent="1" vertex="1">
          <mxGeometry x="130" y="630" width="70" height="70" as="geometry" />
        </mxCell>
        <mxCell id="35dKP0a0qPvihtCSCPD3-10" value="" style="dashed=0;connectable=1;html=1;fillColor=#757575;strokeColor=none;shape=mxgraph.gcp2.mobile_devices;part=1;movable=1;resizable=1;rotatable=1;deletable=1;editable=1;locked=0;" parent="35dKP0a0qPvihtCSCPD3-9" vertex="1">
          <mxGeometry x="0.5" width="50" height="36.5" relative="1" as="geometry">
            <mxPoint x="-25" y="16.75" as="offset" />
          </mxGeometry>
        </mxCell>
        <mxCell id="35dKP0a0qPvihtCSCPD3-11" value="Stacje&lt;div&gt;POS&lt;/div&gt;" style="rounded=1;absoluteArcSize=1;arcSize=2;html=1;strokeColor=none;shadow=0;dashed=0;fontSize=12;align=left;verticalAlign=top;spacing=10;spacingTop=-4;fillColor=#ffe6cc;fontColor=#B3B3B3;movable=1;resizable=1;rotatable=1;deletable=1;editable=1;locked=0;connectable=1;" parent="1" vertex="1">
          <mxGeometry x="80" y="160" width="170" height="130" as="geometry" />
        </mxCell>
        <mxCell id="35dKP0a0qPvihtCSCPD3-12" value="" style="image;points=[];aspect=fixed;html=1;align=center;shadow=1;dashed=0;image=img/lib/allied_telesis/security/POS.svg;imageBackground=default;imageBorder=#CCCCCC;movable=1;resizable=1;rotatable=1;deletable=1;editable=1;locked=0;connectable=1;" parent="1" vertex="1">
          <mxGeometry x="136.75" y="210" width="56.5" height="60" as="geometry" />
        </mxCell>
        <mxCell id="35dKP0a0qPvihtCSCPD3-27" value="Internet" style="line;strokeWidth=4;direction=south;html=1;perimeter=backbonePerimeter;points=[];outlineConnect=0;strokeColor=#B3B3B3;horizontal=0;fontSize=14;fontColor=#999999;movable=1;resizable=1;rotatable=1;deletable=1;editable=1;locked=0;connectable=1;" parent="1" vertex="1">
          <mxGeometry x="300" y="160" width="10" height="840" as="geometry" />
        </mxCell>
        <mxCell id="35dKP0a0qPvihtCSCPD3-28" value="" style="endArrow=none;html=1;rounded=0;exitX=1;exitY=0.623;exitDx=0;exitDy=0;exitPerimeter=0;strokeWidth=3;strokeColor=#B3B3B3;movable=1;resizable=1;rotatable=1;deletable=1;editable=1;locked=0;connectable=1;" parent="1" source="35dKP0a0qPvihtCSCPD3-11" target="35dKP0a0qPvihtCSCPD3-27" edge="1">
          <mxGeometry width="50" height="50" relative="1" as="geometry">
            <mxPoint x="480" y="440" as="sourcePoint" />
            <mxPoint x="530" y="390" as="targetPoint" />
          </mxGeometry>
        </mxCell>
        <mxCell id="35dKP0a0qPvihtCSCPD3-30" value="" style="endArrow=none;html=1;rounded=0;exitX=1;exitY=0.623;exitDx=0;exitDy=0;exitPerimeter=0;strokeWidth=3;strokeColor=#B3B3B3;movable=1;resizable=1;rotatable=1;deletable=1;editable=1;locked=0;connectable=1;" parent="1" edge="1">
          <mxGeometry width="50" height="50" relative="1" as="geometry">
            <mxPoint x="250" y="640" as="sourcePoint" />
            <mxPoint x="303" y="640" as="targetPoint" />
          </mxGeometry>
        </mxCell>
        <mxCell id="35dKP0a0qPvihtCSCPD3-31" value="" style="endArrow=none;html=1;rounded=0;exitX=1;exitY=0.623;exitDx=0;exitDy=0;exitPerimeter=0;strokeWidth=3;strokeColor=#B3B3B3;movable=1;resizable=1;rotatable=1;deletable=1;editable=1;locked=0;connectable=1;" parent="1" edge="1">
          <mxGeometry width="50" height="50" relative="1" as="geometry">
            <mxPoint x="250" y="504.78999999999996" as="sourcePoint" />
            <mxPoint x="303" y="504.78999999999996" as="targetPoint" />
          </mxGeometry>
        </mxCell>
        <mxCell id="35dKP0a0qPvihtCSCPD3-32" value="" style="endArrow=none;html=1;rounded=0;exitX=1;exitY=0.623;exitDx=0;exitDy=0;exitPerimeter=0;strokeWidth=3;strokeColor=#B3B3B3;movable=1;resizable=1;rotatable=1;deletable=1;editable=1;locked=0;connectable=1;" parent="1" edge="1">
          <mxGeometry width="50" height="50" relative="1" as="geometry">
            <mxPoint x="250" y="360" as="sourcePoint" />
            <mxPoint x="303" y="360" as="targetPoint" />
          </mxGeometry>
        </mxCell>
        <mxCell id="35dKP0a0qPvihtCSCPD3-33" value="" style="endArrow=none;html=1;rounded=0;strokeWidth=3;strokeColor=#B3B3B3;movable=1;resizable=1;rotatable=1;deletable=1;editable=1;locked=0;connectable=1;" parent="1" edge="1">
          <mxGeometry width="50" height="50" relative="1" as="geometry">
            <mxPoint x="305.16666666666674" y="579.2900000000002" as="sourcePoint" />
            <mxPoint x="430" y="580" as="targetPoint" />
          </mxGeometry>
        </mxCell>
        <mxCell id="35dKP0a0qPvihtCSCPD3-34" value="" style="sketch=0;aspect=fixed;pointerEvents=1;shadow=0;dashed=0;html=1;strokeColor=none;labelPosition=center;verticalLabelPosition=bottom;verticalAlign=top;align=center;shape=mxgraph.mscae.enterprise.website_generic;fillColor=#808080;movable=1;resizable=1;rotatable=1;deletable=1;editable=1;locked=0;connectable=1;" parent="1" vertex="1">
          <mxGeometry x="140" y="360" width="56.82" height="50" as="geometry" />
        </mxCell>
        <mxCell id="35dKP0a0qPvihtCSCPD3-36" value="" style="endArrow=none;html=1;rounded=0;strokeWidth=3;strokeColor=#B3B3B3;movable=1;resizable=1;rotatable=1;deletable=1;editable=1;locked=0;connectable=1;" parent="1" edge="1">
          <mxGeometry width="50" height="50" relative="1" as="geometry">
            <mxPoint x="305.16666666666674" y="249.50000000000017" as="sourcePoint" />
            <mxPoint x="430" y="250" as="targetPoint" />
          </mxGeometry>
        </mxCell>
        <mxCell id="35dKP0a0qPvihtCSCPD3-14" value="" style="shape=mxgraph.gcp2.google_cloud_platform;fillColor=#F6F6F6;strokeColor=none;shadow=0;gradientColor=none;movable=1;resizable=1;rotatable=1;deletable=1;editable=1;locked=0;connectable=1;" parent="1" vertex="1">
          <mxGeometry x="453.94" y="370" width="23" height="20" as="geometry">
            <mxPoint x="20" y="10" as="offset" />
          </mxGeometry>
        </mxCell>
        <mxCell id="35dKP0a0qPvihtCSCPD3-16" value="" style="strokeColor=#dddddd;shadow=1;strokeWidth=1;rounded=1;absoluteArcSize=1;arcSize=2;movable=1;resizable=1;rotatable=1;deletable=1;editable=1;locked=0;connectable=1;" parent="1" vertex="1">
          <mxGeometry x="536.44" y="700" width="120" height="60" as="geometry" />
        </mxCell>
        <mxCell id="35dKP0a0qPvihtCSCPD3-17" value="Cloud&#xa;Storage" style="editableCssRules=.*;html=1;fontColor=#999999;shape=image;verticalLabelPosition=middle;verticalAlign=middle;labelPosition=right;align=left;spacingLeft=20;part=1;points=[];imageAspect=0;image=data:image/svg+xml,PHN2ZyB4bWxucz0iaHR0cDovL3d3dy53My5vcmcvMjAwMC9zdmciIHhtbG5zOnY9Imh0dHBzOi8vdmVjdGEuaW8vbmFubyIgd2lkdGg9IjIwIiBoZWlnaHQ9IjE2IiB2aWV3Qm94PSIwIDAgMjAgMTYiPiYjeGE7CTxzdHlsZSB0eXBlPSJ0ZXh0L2NzcyI+JiN4YTsJLnN0MHtmaWxsOiM0Mjg1ZjQ7fSYjeGE7CS5zdDF7ZmlsbDojNjY5ZGY2O30mI3hhOwkuc3Qye2ZpbGw6I2FlY2JmYTt9JiN4YTsJLnN0M3tmaWxsOiNmZmY7fSYjeGE7CTwvc3R5bGU+JiN4YTsJPHBhdGggY2xhc3M9InN0MiIgZD0iTTAgMGgyMHY3SDB6Ii8+JiN4YTsJPHBhdGggY2xhc3M9InN0MSIgZD0iTTE4IDBoMnY3aC0yeiIvPiYjeGE7CTxwYXRoIGNsYXNzPSJzdDAiIGQ9Ik0xOCA3bDItN2gtMnoiLz4mI3hhOwk8cGF0aCBjbGFzcz0ic3QxIiBkPSJNMCAwaDJ2N0gweiIvPiYjeGE7CTxnIGNsYXNzPSJzdDMiPiYjeGE7CQk8cGF0aCBkPSJNNCAzaDZ2MUg0eiIvPiYjeGE7CQk8cmVjdCB4PSIxMyIgeT0iMiIgd2lkdGg9IjMiIGhlaWdodD0iMyIgcng9IjEuNSIvPiYjeGE7CTwvZz4mI3hhOwk8cGF0aCBjbGFzcz0ic3QyIiBkPSJNMCA5aDIwdjdIMHoiLz4mI3hhOwk8cGF0aCBjbGFzcz0ic3QxIiBkPSJNMTggOWgydjdoLTJ6Ii8+JiN4YTsJPHBhdGggY2xhc3M9InN0MCIgZD0iTTE4IDE2bDItN2gtMnoiLz4mI3hhOwk8cGF0aCBjbGFzcz0ic3QxIiBkPSJNMCA5aDJ2N0gweiIvPiYjeGE7CTxnIGNsYXNzPSJzdDMiPiYjeGE7CQk8cGF0aCBkPSJNNCAxMmg2djFINHoiLz4mI3hhOwkJPHJlY3QgeD0iMTMiIHk9IjExIiB3aWR0aD0iMyIgaGVpZ2h0PSIzIiByeD0iMS41Ii8+JiN4YTsJPC9nPiYjeGE7PC9zdmc+;movable=1;resizable=1;rotatable=1;deletable=1;editable=1;locked=0;connectable=1;" parent="35dKP0a0qPvihtCSCPD3-16" vertex="1">
          <mxGeometry width="30" height="24" relative="1" as="geometry">
            <mxPoint x="15" y="18" as="offset" />
          </mxGeometry>
        </mxCell>
        <mxCell id="35dKP0a0qPvihtCSCPD3-18" value="" style="strokeColor=#dddddd;shadow=1;strokeWidth=1;rounded=1;absoluteArcSize=1;arcSize=2;movable=1;resizable=1;rotatable=1;deletable=1;editable=1;locked=0;connectable=1;" parent="1" vertex="1">
          <mxGeometry x="686.44" y="700" width="140" height="60" as="geometry" />
        </mxCell>
        <mxCell id="35dKP0a0qPvihtCSCPD3-19" value="BigQuery" style="editableCssRules=.*;html=1;fontColor=#999999;shape=image;verticalLabelPosition=middle;verticalAlign=middle;labelPosition=right;align=left;spacingLeft=20;part=1;points=[];imageAspect=0;image=data:image/svg+xml,PHN2ZyB4bWxucz0iaHR0cDovL3d3dy53My5vcmcvMjAwMC9zdmciIHhtbG5zOnY9Imh0dHBzOi8vdmVjdGEuaW8vbmFubyIgd2lkdGg9IjIwLjAwMTA0NTIyNzA1MDc4IiBoZWlnaHQ9IjIwLjAwMTA0NTIyNzA1MDc4IiBmaWxsLXJ1bGU9ImV2ZW5vZGQiIHZpZXdCb3g9IjAgMCAyMC4wMDEwNDUyMjcwNTA3OCAyMC4wMDEwNDUyMjcwNTA3OCI+JiN4YTsJPHN0eWxlIHR5cGU9InRleHQvY3NzIj4mI3hhOwkuc3Qwe2ZpbGw6I2FlY2JmYTt9JiN4YTsJLnN0MXtmaWxsOiM2NjlkZjY7fSYjeGE7CS5zdDJ7ZmlsbDojNDI4NWY0O30mI3hhOwk8L3N0eWxlPiYjeGE7CTxwYXRoIGNsYXNzPSJzdDAiIGQ9Ik00LjczIDguODN2Mi42M2E0LjkxIDQuOTEgMCAwIDAgMS43MSAxLjc0VjguODN6Ii8+JiN4YTsJPHBhdGggY2xhc3M9InN0MSIgZD0iTTcuODkgNi40MXY3LjUzQTcuNjIgNy42MiAwIDAgMCA5IDE0YTggOCAwIDAgMCAxIDBWNi40MXoiLz4mI3hhOwk8cGF0aCBjbGFzcz0ic3QwIiBkPSJNMTEuNjQgOS44NnYzLjI5YTUgNSAwIDAgMCAxLjctMS44MlY5Ljg2eiIvPiYjeGE7CTxwYXRoIGNsYXNzPSJzdDIiIGQ9Ik0xNS43NCAxNC4zMmwtMS40MiAxLjQyYS40Mi40MiAwIDAgMCAwIC42bDMuNTQgMy41NGEuNDIuNDIgMCAwIDAgLjU5IDBsMS40My0xLjQzYS40Mi40MiAwIDAgMCAwLS41OWwtMy41NC0zLjU0YS40Mi40MiAwIDAgMC0uNiAwIi8+JiN4YTsJPHBhdGggY2xhc3M9InN0MSIgZD0iTTkgMGE5IDkgMCAxIDAgMCAxOEE5IDkgMCAxIDAgOSAwbTAgMTUuNjlhNi42OCA2LjY4IDAgMCAxIC4wMDctMTMuMzYgNi42OCA2LjY4IDAgMCAxIDQuNzI3IDExLjQwM0E2LjY4IDYuNjggMCAwIDEgOSAxNS42OSIvPiYjeGE7PC9zdmc+;movable=1;resizable=1;rotatable=1;deletable=1;editable=1;locked=0;connectable=1;" parent="35dKP0a0qPvihtCSCPD3-18" vertex="1">
          <mxGeometry width="30" height="30" relative="1" as="geometry">
            <mxPoint x="15" y="15" as="offset" />
          </mxGeometry>
        </mxCell>
        <mxCell id="35dKP0a0qPvihtCSCPD3-20" value="" style="strokeColor=#dddddd;shadow=1;strokeWidth=1;rounded=1;absoluteArcSize=1;arcSize=2;movable=1;resizable=1;rotatable=1;deletable=1;editable=1;locked=0;connectable=1;" parent="1" vertex="1">
          <mxGeometry x="851.4450000000002" y="700" width="160" height="60" as="geometry" />
        </mxCell>
        <mxCell id="35dKP0a0qPvihtCSCPD3-21" value="Cloud Machine&#xa;Learning" style="editableCssRules=.*;html=1;fontColor=#999999;shape=image;verticalLabelPosition=middle;verticalAlign=middle;labelPosition=right;align=left;spacingLeft=20;part=1;points=[];imageAspect=0;image=data:image/svg+xml,PHN2ZyB4bWxucz0iaHR0cDovL3d3dy53My5vcmcvMjAwMC9zdmciIHhtbG5zOnY9Imh0dHBzOi8vdmVjdGEuaW8vbmFubyIgd2lkdGg9IjIwIiBoZWlnaHQ9IjE3LjUiIGZpbGwtcnVsZT0iZXZlbm9kZCIgdmlld0JveD0iMCAwIDIwIDE3LjUiPiYjeGE7CTxzdHlsZSB0eXBlPSJ0ZXh0L2NzcyI+JiN4YTsJLnN0MHtmaWxsOiM0Mjg1ZjQ7fSYjeGE7CS5zdDF7ZmlsbDojNjY5ZGY2O30mI3hhOwk8L3N0eWxlPiYjeGE7CTxwYXRoIGNsYXNzPSJzdDAiIGQ9Ik0xOC45MSAxMC42M0wyMCA4Ljc1IDE3LjgyIDVoLTMuMDdsLTEuMDYtMS44NkgxMi41VjEuODhoMS45NGwxLjA2IDEuODdoMS41OUwxNC45IDBoLTQuMjd2NWgxLjczbC43MyAxLjI1aC0yLjQ2djIuNWgyLjI2bDEuMDUtMS44N2gyLjgxbC43MiAxLjI1aC0yLjhMMTMuNjIgMTBoLTIuOTl2NC4zOGgzLjRsLS43MiAxLjI1aC0yLjY4djEuODdoNC4yN2wzLjI4LTUuNjJoLTIuMDlsLS43MyAxLjI1SDEyLjV2LTEuMjVoMi4xNGwuNzQtMS4yNXoiLz4mI3hhOwk8cGF0aCBjbGFzcz0ic3QxIiBkPSJNMS4wOSAxMC42M0wwIDguNzUgMi4xOCA1aDMuMDdsMS4wNi0xLjg2SDcuNVYxLjg4SDUuNTZMNC41IDMuNzVIMi45MUw1LjEgMGg0LjI4djVINy42NGwtLjczIDEuMjVoMi40N3YyLjVINy4xMUw2LjA2IDYuODhIMy4yNWwtLjcyIDEuMjVoMi44TDYuMzggMTBoM3Y0LjM4SDUuOTdsLjcyIDEuMjVoMi42OXYxLjg3SDUuMWwtMy4yOC01LjYyaDIuMDlsLjczIDEuMjVINy41di0xLjI1SDUuMzZsLS43NC0xLjI1eiIvPiYjeGE7PC9zdmc+;movable=1;resizable=1;rotatable=1;deletable=1;editable=1;locked=0;connectable=1;" parent="35dKP0a0qPvihtCSCPD3-20" vertex="1">
          <mxGeometry width="30" height="27" relative="1" as="geometry">
            <mxPoint x="15" y="16" as="offset" />
          </mxGeometry>
        </mxCell>
        <mxCell id="hNwgVkph9_-9w0Fj4r1G-4" style="rounded=0;orthogonalLoop=1;jettySize=auto;html=1;startArrow=classic;startFill=1;strokeWidth=2;dashed=1;strokeColor=#FF0000;dashPattern=1 2;edgeStyle=orthogonalEdgeStyle;curved=1;" parent="1" edge="1">
          <mxGeometry relative="1" as="geometry">
            <mxPoint x="510.91551724137935" y="460.0000000000001" as="sourcePoint" />
            <mxPoint x="510.00468559837714" y="620" as="targetPoint" />
            <Array as="points">
              <mxPoint x="470" y="460" />
              <mxPoint x="470" y="620" />
            </Array>
          </mxGeometry>
        </mxCell>
        <mxCell id="35dKP0a0qPvihtCSCPD3-26" value="" style="shape=image;verticalLabelPosition=bottom;labelBackgroundColor=default;verticalAlign=top;aspect=fixed;imageAspect=0;image=data:image/png,iVBORw0KGgoAAAANSUhEUgAAAbEAAAB0CAMAAAA8XPwwAAAAwFBMVEX///9OTk7zdyaYl5hJSUk+Pj5LS0tDQ0N2dnfn5+dGRka2trY8PDxnZ2f19fWBgYFvcHDw8PDDw8Pb29tWVlbxawA4ODi9vb3i4uLJycmwsLCGhoZVVVXR0dGenp7X19fycxqmpqbycBBhYWGRkJH+8+385dr2qH/718VkZGT6zrjxaAD5xKr1nnD97uX83tD1lFzzgz/0i034upr0k173ron5xazyey32o3b60LrzhUT0jVP4tpT1k13zfzUsLCxmb2eAAAAP00lEQVR4nO1dCZeivBLVlkVREW1xX3Hrze6ZtveZ6e///6vHkgoQkgAKgq+558w5Y7OFXKpSqapUSqUk0a6pid6vQLqoV5tas9XPuhkFIqLd0qoWtHEhZ5eBKkAbZ92UAlEw0lzKOlk3pkAEVD1oZd2YAuGoaR7GmsVIln8MfIy1s25OgVD4ZSzr1hSIAC9jxTiWPR6f3g67/cuvXy8fr4fP7SZ4RmErnhOD4ZQz8jwdfi0M3TAWCIb54+rj7ZE4rZiPnQ211m2zuZrRD37udX2xuArA5PD9des9s/B5nAvtpmahWQke2u4MncIWZk3//eDVj4Vf8TyoOIxpt3PiwM0fHl0ODGPn5aw9KOz69HGrIfj14tNzOF+OoO0odkiB9NDGjHkNhs2LHoUuxNkhs9bnB+pwfS6LawWMeQayByOSfGHd+HvLvv9PwHypibJ8rmnoGhF2O4W/bP5EFzAE/e+ZWptHjCVRkcpl4VyM1Ry12MQyfRNPwJCYPZ+puTnErUlX+YyMlQZVcz52i3Xi4T4+XyYWVz9WMzbPzVipNO13avD/j9gaEaDfnK/FuUIGjHmwNzhiZIND2V0mTc4cmTL2EiRssTB03fzz9/OvX/uXX3++3q8cN2OQsvufSVmWjJGEWd7DP68PN6Sz/nH7efj4WugkbT9TMWbI2M7ws/X1+kl66L1Qt2/7K91Hsv50tsbmB9kx9qB76drfRfI+bQ9fXtIWP9BllRljT5gww3iJo942D7+xD3LxnVr7cousGFOh0/XvQ2xB2e4MJGjGLo3GJQG13W6nErqLz5iqHtUQ4qoXhzH96zjrYXNYGPm1Pqaz5kRuNESlqy3JqNLJAMYieYJr9XWzKylCeaXNhjF4Gyy1rlSeDN2/fOqOfJ3Q3wekG+NdNZt0bUg14sBasDuiLDJibi2no8oS+d5NQbIgwm91Zjn+nLMlSRHLy+DNlmWnFZMuu6VVaGnd+T2Uy0yI17Q7qKOuKAtOU8yWyHKLepoJzWnuCv0caM4biJ54sSUgi6sTJ1Q7i/ZFPL1YUSSngwOMKXzGqg6jkkIyhg6I6O/LnuLvTUkW6+TN2qKEmjElDwVO6aEb8xhr0KiY9WTJf5rQ0MjXdjC22yyh76fSQ9fJLmM7Uzz004eg7ZfJvB7Lw1gBYsimV0IYayEZDDCGDjg3HHRp/SoGkmARzRzd1kc3wuNVTBkbSrTzhUbg67EAn6v9Q8MXuow96qaAJTKXOtxfLf7EuSA9xgbm/zsi8VVDRylElw5FdKTBamgV3QlLYTzGKg3WqWt2rwjW/5uujnAZ2y/0PaulMbG9WsSaRyfP2FjAndbvsbpUEgkLRAoqHh/aiFKpDH+JxZgrJ+b4JYqyIrjnUsR65ry8bL2O5zG4cY96kpH/P3qcYFnyjK0xY8MedJJovrZgjvreTh34rlqix0ka/XF11HEKzocZooHN/QpckOMYJkyRteVwPp+OxhIe1MRg6iFqjSnwHa9sYsZ294ma5B/3MYQsecbQheK07XSTJHaXVgqtWuu0ZFfDuMJiow3iGGiIAw2UIiZ6irLQ4IbdqobR9H8OICeSOHPfpj+BxvQC5s7IOdQrlQT0XEE20UOMbeL0cBR8vEQ/N3nG0PcpT51Ollee/lBnDSwTStV3GYxT8oj2tDb61KXgMpDw+VgdaVTl1v+SYxg8y+QVmLGlw7Usj+vD6bCOVPnfxP23++hek9QYk5rWCVKDIGAwwaqxMfQeANtDWpUoAKVIGeZCfR41xLZcJY9U0DNlcoqIHtdQ7XcRFMKgTMFLEf2WyTM2ghHJ+qcEXRxNoIzQi0AkdfaLlWLQTxHKGJxAGSFbqK0ycVs0lVBsC0Su5ioxPgXGvMbVgHJlFxSjX2CQfVZWKAntKhrlaKovjDEkvJJA6XcVVDEhZDD5swnL2dKT5Bmru4z59R4AtBShAGvMUcW9J80lEsbYSuK0BX1eEuEd67vvQBPNTJEmYwrj68RS6J+U4TlysG+RUpQoZIYxBiLG6HiZ1pJSx2WMVJiZI03GmC8LelHw+RvA9gj2PUyfFYoTOYwxcMEwYgZovq/452QuYzLVi5UlUmSMNiD5TyFkBsa3BuuWDdpcjc8YTAqpFmgJe06I45gxacJ6h8yQPGN4DGjQzA4bKpiLfrsQbI/Adw1KkarZ+IyB1UeTTgsw0ev5XgMzxrwuO6QnY+Ro7gXSRcR0uQZerVv/2aAUZeoKbz5jXr80FejefpsGM8a+LjOkxxgvKNyhnwOzLkL74TtSx0U+Y6DdmE1BpqRfrqF9OVSKKTLGG7Pb0CPE8EG3MBCRAi0uEsIYmklIAXcHBrJQ/aYH44vKBdJjjB1ONgEDWc//Z3CX+BQqKEWGucdlDBkWwnhwTceA+jkAYzkcxtJkjDcEYP3nvxpsDx85jFkugMsYTP0EkQVIV/FJITDGitZlifQYo5riAJz34z8J3CGK94tHlChUp34IY2tvSI4Hvx3aiaInMkJGjGFhIgQRZM9jKUDkrMdoCJex1omMsZKtMkTWjBFdgrvK9VSh+7HcTHzGqlEZ819eMBbAkiFj4PcQ3GEFrZqleBsdcBkDmQ2FQrU8CsYwWFoRP7YBj8U+RdatIjEmSQIfMtW6LxgLv/sAAsZgZyBrj+2k5GtFZLUsrWR7LnyXFYwxr+4FjiAC8Nwa/aZm+XpP4FoecedVF8nYmnUA4TTGVhD8DRwBRzLyI6M4J9P3Hs26Z0soHRfJWAVmTIyJ8GkzaPBSUQxAf2IiUor0DCsbXMYgTShmIPkyGWPY3wCIGB/lpRpA8JLiKkQPRi4OZDrI7Kp2XMawE57dFt5lF8UYDlYxrGotjDGeJ5iTzIZtD1tGkaUosD25fMbg02DpdgYukjGcNs0YtCdhjPHGDpjY8oLK9oPRqMacjJXCoi2sICkfF8nYFBQXPeCAE6LYEU22saCCj54afup7Avlg63HegM8YLHOLV1L+IhkbBBaT+IDzodh5HmzTY8QVQ9XjJRZDxRWnFNAVZ/2ovr9Ixko9bsdPsPuHyRg7HFiGWAu9Q9DEwrQPkaCzM0ZKLmN0KYLYKW8kDOIyGWvCQEX7wLGIBRWbm/3WY7zvMkRvIvE2pcZpHV+lIaOVFT6DWQg9w5SBy2QMjMWg3vPm7/IYY2RJgDHIjheC8xdJMt9sgCwfhnNmDk1lOW9ouEzGwPQg3NoWVFcn8hgjFxyhi0EnstNecMoaUo/ctFwIA7D4x87gSfTs3stkDI825QaRddbuulEnLmNlSvFeFV/M0VNICp0zQ9JjOiE6FnLqzNeJnMoWwlgKtaR4Fcj84DCG1WK55/t8O8561IlzjMtYWVkR953jZbBUAUTwBftZCdgIeJ4hMjxZI1AWUoM+t6wFeAlh7JXboGNwE3392IzNWNvterGFP89h0+4AeQQlWMjL3Cxuu5fEimf8qI3xGk3q6iDAtWf1MS9T1QZe3cQgpKThT0+e1Mmn1upaL6D2Qxjb/g5pUlxsY9TN4TBWmnnW5IiryqjfX7YkJ/lIuMUjPtPnsUSTKblaH7RLavt6pImeJf7cIeLWjR1znMAOKi4h5fWoPlquu8SQ5mpxSVaqo7m9b7baHkxH464oS8FvImwc+0qWsqf7h+gnc7Si5+u13lVRZFxUwaqUg2ZNAVHB0Zb2DNwmsmit+7aLnANCjG2PaqUsy/Sj5gqkJNiNJEluTzxaVlJEuzlmg0TFWZge8DOHMXZz/x594AnFnW7EOJvLmGvE+yHJNXeFOic+1mKV3OBUM3KgYrmJkJa7Jh8T8IWqK07xD4q3O9RW/L0wElsM/aobcYqDwBgvU53bc2rNG6VrnYwYC0xzvBHNFp1yZRJqtY2xRRnBwOsSGVNKsELHukF7E9b5oYzd6Fd6MvbH5tm4iiNi7ioTejjiWlDI15MajskO6/FZTn/7wKgXTD8TgiN9ENhmj+LCbU/8rQzOIM2Pb8WouGQVpyIfEj4fe14ks/vKm27eKMYo5mGM4RFQxw1fnwtiFym0jkgtT0NkDdS81obFgNKoRpkWXUNgK5pzqeUTIboTsbPyjaTQHlEeB1Q0erfgy2FsrTp796eK2fbZuk08M4YZSsYYjBVrhDZhDetV3IPzVdPCinxdMs9j3vJcL3Zn0aaxEO6Puhxo2rRLJzoPkRi+/sFsZdekkuBtROF2RhtRh867NVdsg9auw20sYokHgc3OLokZsx43pMgInHPU6bKlNZtaazaM4JsLZuZY11c1rdqa9SOHgpHDJdS0d1Ebje2deit13jfRntYrLWdL3/WoMzhhWToq8/v+duT1m51T/T5uoWAw15Nb2hYplyoMuKBG3lb6u4BS3MYifmFnUx/uoRz3e8wrYSFrclUrEmGs7MkcyCv+Qtl6Q9/HM/U3b1+4fHq8AqbujCtuQh8HSTAGEbTcFdPw4R/e02Ohv++ijkabuxfPJi56XKUKZSVjjBdhSIAxKAAQqPCVM3x7NwHRFy8PofLy9PfLt+eOEdvapC6KPA0JMAZeRTH81Eyx8W+cY22K9O/vJ522zdPb7lsn9rM14peuBc9hMP/9aJzOWCVCxmM+8GhcEbD3snr/t389vN19ft7cfN7dPfzd7Z8XemBjJJOwf7GfiBOmEiyXdTJjUMAyNMySA2wDlCHeFoYL1rZxRqwa3A4gbSXJr/lUxqBERLmRw0XIATzyNvHjw4hRahbg1ixP0CY7kbE+Tl3NYS0NCja/6WIWimP2N5jjaHEE12xknMbYEhdcZ5e5yRn2R+19GtusN7HEkcCY6wj4OIUxtYrDM73Et+RJDQ/xKTPe4/v9O+7+HHIwnHQCTmCs724cIOZ8KubDY1zNGFcjtgedtVugn7ek4Rgczdhw5cY/z7bnfUI4xNl33fiOWX29/59vdweJs5ruGBzJ2HLiiTgqeSvOG4rNhx6RsyMiNHNfKF+InncZDUcy1vR8RPLFEVbyeuO5fMXK6UBoe7ciEbWkna1HMuYpui5emEoEPL5S/BpeLPT34yKgblKEIiZf3OxIxtya6r1EDaH0cN3p9+fE9373j7q5ukPXVWT/PgnkaJVkSs7R6aiLThWaXkzLA7k45fIluDpMW3u9Xlcq6zWZZLy5+/jW/bTZvsbnUzZ7qSqSoIhiNZ3igcPx2sY4pkFjZ04qjeQCdWlCnZl0OVgH7YDN52H/fKUjvL/sHp5OW1wxW1XHo2negoVTUZB9Sfp5xqziYs1UJpvHzf/zlupqWkKfAvprD2OVCxl3fzJUH2GV9eU41H4qhn7GKpfkUfuZGPkJqyQZ+iiQBmYkY3mz4goQWBaMXRjqhVa8MMwJyyP3OV8FCOs+yRB+gVQw9VK2Ti6fukBqqHsoK1weFwHsp1oX0+cLQW1kRyiWhYfqcqDWrk9Z41mgQAEa/gckNRxIUF7WGQAAAABJRU5ErkJggg==;dashed=1;dashPattern=1 2;" parent="1" vertex="1">
          <mxGeometry x="856.79" y="792.14" width="149.31" height="40" as="geometry" />
        </mxCell>
        <mxCell id="N3Vv8xPvsJctR40ruS8Q-7" value="Pub/Sub" style="editableCssRules=.*;html=1;fontColor=#999999;shape=image;verticalLabelPosition=middle;verticalAlign=middle;labelPosition=right;align=left;spacingLeft=20;part=1;points=[];imageAspect=0;image=data:image/svg+xml,PHN2ZyB4bWxucz0iaHR0cDovL3d3dy53My5vcmcvMjAwMC9zdmciIHhtbG5zOnY9Imh0dHBzOi8vdmVjdGEuaW8vbmFubyIgd2lkdGg9IjE4LjMxOTk5OTY5NDgyNDIyIiBoZWlnaHQ9IjIwLjAwMDAwMTkwNzM0ODYzMyIgdmlld0JveD0iMCAwIDE4LjMxOTk5OTY5NDgyNDIyIDIwLjAwMDAwMTkwNzM0ODYzMyI+JiN4YTsJPHN0eWxlIHR5cGU9InRleHQvY3NzIj4mI3hhOwkuc3Qwe2ZpbGw6IzY2OWRmNjt9JiN4YTsJLnN0MXtmaWxsOiM0Mjg1ZjQ7fSYjeGE7CS5zdDJ7ZmlsbDojYWVjYmZhO30mI3hhOwk8L3N0eWxlPiYjeGE7CTxkZWZzPiYjeGE7CQk8ZmlsdGVyIGlkPSJBIiB4PSI0LjY0IiB5PSI0LjE5IiB3aWR0aD0iMTQuNzMiIGhlaWdodD0iMTIuNzYiIGZpbHRlclVuaXRzPSJ1c2VyU3BhY2VPblVzZSIgY29sb3ItaW50ZXJwb2xhdGlvbi1maWx0ZXJzPSJzUkdCIj4mI3hhOwkJCTxmZUZsb29kIGZsb29kLWNvbG9yPSIjZmZmIi8+JiN4YTsJCQk8ZmVCbGVuZCBpbj0iU291cmNlR3JhcGhpYyIvPiYjeGE7CQk8L2ZpbHRlcj4mI3hhOwkJPG1hc2sgaWQ9IkIiIHg9IjQuNjQiIHk9IjQuMTkiIHdpZHRoPSIxNC43MyIgaGVpZ2h0PSIxMi43NiIgbWFza1VuaXRzPSJ1c2VyU3BhY2VPblVzZSI+JiN4YTsJCQk8Y2lyY2xlIGN4PSIxMiIgY3k9IjEyLjIzIiByPSIzLjU4IiBmaWx0ZXI9InVybCgjQSkiLz4mI3hhOwkJPC9tYXNrPiYjeGE7CTwvZGVmcz4mI3hhOwk8ZyBjbGFzcz0ic3QwIj4mI3hhOwkJPGNpcmNsZSBjeD0iMTYuMTMiIGN5PSI2LjIxIiByPSIxLjcyIi8+JiN4YTsJCTxjaXJjbGUgY3g9IjIuMTkiIGN5PSI2LjIxIiByPSIxLjcyIi8+JiN4YTsJCTxjaXJjbGUgY3g9IjkuMTYiIGN5PSIxOC4yOCIgcj0iMS43MiIvPiYjeGE7CTwvZz4mI3hhOwk8ZyBtYXNrPSJ1cmwoI0IpIiB0cmFuc2Zvcm09InRyYW5zbGF0ZSgtMi44NCAtMikiPiYjeGE7CQk8cGF0aCB0cmFuc2Zvcm09Im1hdHJpeCguNSAtLjg3IC44NyAuNSAtNC41OSAyMC41MykiIGQ9Ik0xNC42OSAxMC4yMmgxLjU5djguMDRoLTEuNTl6IiBjbGFzcz0ic3QxIi8+JiN4YTsJCTxwYXRoIHRyYW5zZm9ybT0icm90YXRlKDMzMCA4LjUyMyAxNC4yNDQpIiBkPSJNNC40OSAxMy40NWg4LjA0djEuNTlINC40OXoiIGNsYXNzPSJzdDEiLz4mI3hhOwkJPHBhdGggZD0iTTExLjIgNC4xOWgxLjU5djguMDRIMTEuMnoiIGNsYXNzPSJzdDEiLz4mI3hhOwk8L2c+JiN4YTsJPGcgY2xhc3M9InN0MiI+JiN4YTsJCTxjaXJjbGUgY3g9IjkuMTYiIGN5PSIxMC4yMyIgcj0iMi43OCIvPiYjeGE7CQk8Y2lyY2xlIGN4PSIyLjE5IiBjeT0iMTQuMjUiIHI9IjIuMTkiLz4mI3hhOwkJPGNpcmNsZSBjeD0iMTYuMTMiIGN5PSIxNC4yNSIgcj0iMi4xOSIvPiYjeGE7CQk8Y2lyY2xlIGN4PSI5LjE2IiBjeT0iMi4xOSIgcj0iMi4xOSIvPiYjeGE7CTwvZz4mI3hhOzwvc3ZnPg==;" parent="1" vertex="1">
          <mxGeometry x="603.94" y="415.0000000000001" width="27" height="30" as="geometry" />
        </mxCell>
        <mxCell id="N3Vv8xPvsJctR40ruS8Q-8" value="Dataflow" style="editableCssRules=.*;html=1;fontColor=#999999;shape=image;verticalLabelPosition=middle;verticalAlign=middle;labelPosition=right;align=left;spacingLeft=20;part=1;points=[];imageAspect=0;image=data:image/svg+xml,PHN2ZyB4bWxucz0iaHR0cDovL3d3dy53My5vcmcvMjAwMC9zdmciIHhtbG5zOnY9Imh0dHBzOi8vdmVjdGEuaW8vbmFubyIgd2lkdGg9IjE0LjUxOTk5OTUwNDA4OTM1NSIgaGVpZ2h0PSIyMCIgdmlld0JveD0iMCAwIDE0LjUxOTk5OTUwNDA4OTM1NSAyMCI+JiN4YTsJPHN0eWxlIHR5cGU9InRleHQvY3NzIj4mI3hhOwkuc3Qwe2ZpbGwtcnVsZTpldmVub2RkfSYjeGE7CS5zdDF7ZmlsbDojNjY5ZGY2O30mI3hhOwkuc3Qye2ZpbGw6I2FlY2JmYTt9JiN4YTsJLnN0M3tmaWxsOiM0Mjg1ZjQ7fSYjeGE7CTwvc3R5bGU+JiN4YTsJPGcgY2xhc3M9InN0MCI+JiN4YTsJCTxwYXRoIGNsYXNzPSJzdDEiIGQ9Ik03LjM3IDIuMDNsLTEuNzIuOTYgMS41MiAxLjUtLjAyIDEuNzMgMS4wMi4wMS4wMi0xLjczIDQuMjQgMi41Ni0uMDEgMS4wNyAxLjc3LjAzVjYuMTFMOS4wNSAzLjA0bC0uMjctLjk0eiIvPiYjeGE7CQk8cGF0aCBjbGFzcz0ic3QyIiBkPSJNNy4zNiAyLjAzbC0xLjQyLjM1LS4yOS42MUwuMzkgNS45Mi4zNiA3Ljk3IDIuMTQgOGwuMDItMS4wNyA0LjMxLTIuNDUtLjAyIDEuNzMuODYuMDEuMDYtNC4xOXoiLz4mI3hhOwkJPGcgY2xhc3M9InN0MSI+JiN4YTsJCQk8cGF0aCBkPSJNNy4zNiAyLjAzTDMuOTUgMCAyLjIxLjk1bDMuNDQgMi4wNCAxLjcyLS45NnptLjcxIDExLjc2bC0xLjcyLS4wMi0uMDIgMS43Mi44MiAyLjQ4IDEuNDItLjEyLjI5LS44NSA1LjI3LTIuOTMuMDMtMi4wOS0xLjc5LS4wMi0uMDIgMS4xLTQuMyAyLjQ1eiIvPiYjeGE7CQkJPHBhdGggZD0iTTcuMTUgMTcuOTdsLTMuNDYgMS45NGgtLjA1bC0xLjY2LS45OSAzLjQ5LTEuOTYgMS42OCAxLjAxeiIvPiYjeGE7CQk8L2c+JiN4YTsJCTxwYXRoIGNsYXNzPSJzdDMiIGQ9Ik0xMC44OC4wOWgtLjA1TDcuMzcgMi4wM2wxLjY4IDEuMDEgMy40OS0xLjk2ek0xMC42MiAyMGgtLjA1bC0zLjQyLTIuMDNoMCAwIDBsMS43Mi0uOTYgMy40NCAyLjA0eiIvPiYjeGE7CQk8cGF0aCBjbGFzcz0ic3QyIiBkPSJNLjMzIDEzLjg5di0yaDEuNzZsLS4wMSAxLjA0IDQuMjUgMi41Ni4wMi0xLjcyLjg2LjAxLS4wNiA0LjE4LTEuNjgtMXoiLz4mI3hhOwk8L2c+JiN4YTsJPGNpcmNsZSBjbGFzcz0ic3QyIiBjeD0iMTMuMzgiIGN5PSIxMC4wNCIgcj0iMS4xNCIvPiYjeGE7CTxjaXJjbGUgY2xhc3M9InN0MiIgY3g9IjEuMTQiIGN5PSI5Ljg4IiByPSIxLjE0Ii8+JiN4YTsJPGNpcmNsZSBjbGFzcz0ic3QyIiBjeD0iNy4zMiIgY3k9IjcuOTkiIHI9IjEuMTQiLz4mI3hhOwk8Y2lyY2xlIGNsYXNzPSJzdDIiIGN4PSI3LjIzIiBjeT0iMTIiIHI9IjEuMTQiLz4mI3hhOzwvc3ZnPg==;" parent="1" vertex="1">
          <mxGeometry x="711.9399999999999" y="415" width="22" height="30" as="geometry" />
        </mxCell>
        <mxCell id="N3Vv8xPvsJctR40ruS8Q-12" value="Apigee" style="editableCssRules=.*;html=1;shape=image;verticalLabelPosition=middle;labelBackgroundColor=none;verticalAlign=middle;aspect=fixed;imageAspect=0;image=data:image/svg+xml,PHN2ZyB4bWxucz0iaHR0cDovL3d3dy53My5vcmcvMjAwMC9zdmciIHhtbG5zOnY9Imh0dHBzOi8vdmVjdGEuaW8vbmFubyIgd2lkdGg9IjIwLjE4MDIzMTA5NDM2MDM1IiBoZWlnaHQ9IjIwLjE4MDIwODIwNjE3Njc1OCIgdmlld0JveD0iLTAuMDAwMTE1MTY1MTIzMTMzOTIwMTMgLTAuMDAwMTAzMzQ0NDkzMjU0NTUzNTMgMjAuMTgwMjMxMDk0MzYwMzUgMjAuMTgwMjA4MjA2MTc2NzU4Ij4mI3hhOwk8c3R5bGUgdHlwZT0idGV4dC9jc3MiPiYjeGE7CS5zdDB7ZmlsbDojNjY5ZGY2O2ZpbGwtcnVsZTpldmVub2RkfSYjeGE7CS5zdDF7ZmlsbC1ydWxlOmV2ZW5vZGQ7ZmlsbDojNDI4NWY0fSYjeGE7CTwvc3R5bGU+JiN4YTsJPHBhdGggY2xhc3M9InN0MCIgZD0iTTMuMjkgMTAuMDlsMS4zMi0xLjMyLTEuNzktMS43OWEyLjk0IDIuOTQgMCAwIDEgMi4wOC01IDIuOTIgMi45MiAwIDAgMSAyLjA3Ljg2bDEuOCAxLjc5IDEuMzItMS4zNEw4LjMgMS41YTQuODEgNC44MSAwIDEgMC02LjggNi44em0xMy42IDBsLTEuMzIgMS4zMiAxLjc5IDEuOGEyLjk0IDIuOTQgMCAwIDEtNC4xNiA0LjE1bC0xLjc5LTEuNzktMS4zMiAxLjMyIDEuNzkgMS43OWE0LjgxIDQuODEgMCAxIDAgNi44LTYuOHoiLz4mI3hhOwk8cGF0aCBjbGFzcz0ic3QxIiBkPSJNNi45OCAxNy4zNmEyLjk0IDIuOTQgMCAxIDEtNC4xNi00LjE2bDEuNzktMS43OSA0LjE2IDQuMTZ6bTYuMjMtMTQuNTRhMi45MyAyLjkzIDAgMCAxIDUgMi4wOCAzIDMgMCAwIDEtLjg2IDIuMDhsLTEuNzkgMS43OS00LjE1LTQuMTZ6bS0zLjEyIDEwLjQ2YTMuMiAzLjIgMCAwIDEtMy4xOS0zLjE5aDBhMy4yMSAzLjIxIDAgMCAxIDMuMTktMy4xOWgwYTMuMjEgMy4yMSAwIDAgMSAzLjE5IDMuMTloMGEzLjIgMy4yIDAgMCAxLTMuMTkgMy4xOXptNi44LTMuMTlsMS43OS0xLjc5QTQuODEgNC44MSAwIDAgMCAxNi41NzQuMTUzIDQuODEgNC44MSAwIDAgMCAxMS44OCAxLjVsLTEuNzkgMS43OS02LjggNi44LTEuNzkgMS43OWE0LjgxIDQuODEgMCAwIDAgMi4xMDYgOC4xNDdBNC44MSA0LjgxIDAgMCAwIDguMyAxOC42OGwxLjc5LTEuNzl6Ii8+JiN4YTs8L3N2Zz4=;labelPosition=right;align=left;fontColor=#999999;" parent="1" vertex="1">
          <mxGeometry x="821.4399999999999" y="415" width="30" height="30" as="geometry" />
        </mxCell>
        <mxCell id="N3Vv8xPvsJctR40ruS8Q-13" value="" style="strokeColor=#dddddd;shadow=1;strokeWidth=1;rounded=1;absoluteArcSize=1;arcSize=2;" parent="1" vertex="1">
          <mxGeometry x="536.44" y="792.14" width="120" height="60" as="geometry" />
        </mxCell>
        <mxCell id="N3Vv8xPvsJctR40ruS8Q-14" value="Datalab" style="editableCssRules=.*;html=1;fontColor=#999999;shape=image;verticalLabelPosition=middle;verticalAlign=middle;labelPosition=right;align=left;spacingLeft=20;part=1;points=[];imageAspect=0;image=data:image/svg+xml,PHN2ZyB4bWxucz0iaHR0cDovL3d3dy53My5vcmcvMjAwMC9zdmciIHhtbG5zOnY9Imh0dHBzOi8vdmVjdGEuaW8vbmFubyIgd2lkdGg9IjI3MS44OTgxMDE4MDY2NDA2IiBoZWlnaHQ9IjQyMy4wMDQwMjgzMjAzMTI1IiB2aWV3Qm94PSIwLjAwMDQ2MTI3MDM2MzMwMjkwMTQgMCAyNzEuODk4MTAxODA2NjQwNiA0MjMuMDA0MDI4MzIwMzEyNSI+JiN4YTsJPHN0eWxlIHR5cGU9InRleHQvY3NzIj4mI3hhOwkuc3Qwe2ZpbGw6IzQyODVmNDtmaWxsLXJ1bGU6ZXZlbm9kZH0mI3hhOwk8L3N0eWxlPiYjeGE7CTxwYXRoIGNsYXNzPSJzdDAiIGQ9Ik0xOTcuMzc4IDE0NC43NzRhMy4xMSAzLjExIDAgMCAxIDMuMTA1IDIuOTM0bC4wMDUuMTc3djE3LjEwN2EzLjExIDMuMTEgMCAwIDEtMi45MzQgMy4xMDVsLS4xNzcuMDA1aC0xMi40NDF2MzAuNjQ5YzAgMS4yMjcuMjk3IDIuNDM1Ljg2MiAzLjUyMmwuMTYxLjI5MyA4My44OTUgMTQ0LjI2MmExNS4yNiAxNS4yNiAwIDAgMSAuMTgyIDE0LjkzNmwtLjE4Mi4zMjQtMzAuNDMxIDUzLjI4NmExNS4yNiAxNS4yNiAwIDAgMS0xMi44NjEgNy42MjZsLS4zNTUuMDA0SDQ1LjY5MmExNS4yNiAxNS4yNiAwIDAgMS0xMy4wMzUtNy4zMjRsLS4xODEtLjMwNS0zMC40MzEtNTMuMjg2YTE1LjI2IDE1LjI2IDAgMCAxLS4xODItMTQuOTM2bC4xODItLjMyNCA4My42NzQtMTQ0LjI2MmMuNjIxLTEuMDc3IDEuMTYtMi4yODkgMS4yMzQtMy41MjhsLjAwOS0uMjg3di0zMC42NDlINzQuNTJjLTEuNjU4IDAtMy4wMTQtMS4yOTktMy4xMDUtMi45MzRsLS4wMDUtLjE3NnYtMTcuMTA3YTMuMTEgMy4xMSAwIDAgMSAyLjkzNC0zLjEwNWwuMTc2LS4wMDV6bS0zNS43NjkgMjMuMzI3aC01MS4zMnYzNS40MDVjMCAyLjUzMS0uNjI4IDUuMDE4LTEuODI2IDcuMjQybC0uMjE3LjM5TDI4LjAzMyAzNTAuOWE3LjYzIDcuNjMgMCAwIDAtLjEzOSA3LjM3NWwuMTQxLjI1NSAyMC43NDEgMzUuOTIxYTcuNjMgNy42MyAwIDAgMCA2LjMyNyAzLjgxbC4yODEuMDA1aDI1LjU3MmwtMjIuNjA1LTM5LjE1M2MtMS4zMTQtMi4yNzYtMS4zNjEtNS4wNjItLjE0MS03LjM3NWwuMTQxLS4yNTUgMTkuNjc5LTM0LjA4NmgxNDYuNjA2TDIxMi45ODggMjk3LjFoLTU0LjI1OWwtOC44MjEtMTUuMjc4aDU0LjMxMmwtMTYuMzMzLTI4LjQ2aC01NC43OGwtOC44MjEtMTUuMjc4aDU0LjgzM2wtMTUuNDY1LTI2Ljk0NmExNS4yNyAxNS4yNyAwIDAgMS0yLjAzOS03LjE4NWwtLjAwNy0uNDQ2em03Mi44NDQgMTY2LjQwMWwtNTQuMTgxLjAwMSA4LjgyMSAxNS41NTJoNTQuMjg1ek0xMDQuOTIxIDc5Ljc5NWM4LjQyNyAwIDE1LjI1OSA2LjgzMyAxNS4yNTkgMTUuMjYxcy02LjgzMiAxNS4yNTktMTUuMjU5IDE1LjI1OS0xNS4yNTktNi44MzItMTUuMjU5LTE1LjI1OSA2LjgzMi0xNS4yNjEgMTUuMjU5LTE1LjI2MXptNTcuNTc1LTMyLjc0M2MxMi42NDIgMCAyMi44OSAxMC4yNDcgMjIuODkgMjIuODg5cy0xMC4yNDkgMjIuODg5LTIyLjg5IDIyLjg4OS0yMi44ODktMTAuMjQ5LTIyLjg4OS0yMi44ODkgMTAuMjQ3LTIyLjg4OSAyMi44ODktMjIuODg5ek0xMjcuODEgMGM4LjQyNyAwIDE1LjI2MSA2LjgzMyAxNS4yNjEgMTUuMjYxUzEzNi4yMzcgMzAuNTIgMTI3LjgxIDMwLjUycy0xNS4yNTktNi44MzItMTUuMjU5LTE1LjI1OVMxMTkuMzg0IDAgMTI3LjgxIDB6Ii8+JiN4YTs8L3N2Zz4=;" parent="N3Vv8xPvsJctR40ruS8Q-13" vertex="1">
          <mxGeometry width="20" height="30" relative="1" as="geometry">
            <mxPoint x="20" y="15" as="offset" />
          </mxGeometry>
        </mxCell>
        <mxCell id="N3Vv8xPvsJctR40ruS8Q-15" value="" style="strokeColor=#dddddd;shadow=1;strokeWidth=1;rounded=1;absoluteArcSize=1;arcSize=2;" parent="1" vertex="1">
          <mxGeometry x="686.44" y="792.14" width="140" height="60" as="geometry" />
        </mxCell>
        <mxCell id="N3Vv8xPvsJctR40ruS8Q-16" value="Dataprep" style="editableCssRules=.*;html=1;fontColor=#999999;shape=image;verticalLabelPosition=middle;verticalAlign=middle;labelPosition=right;align=left;spacingLeft=20;part=1;points=[];imageAspect=0;image=data:image/svg+xml,PHN2ZyB4bWxucz0iaHR0cDovL3d3dy53My5vcmcvMjAwMC9zdmciIHhtbG5zOnY9Imh0dHBzOi8vdmVjdGEuaW8vbmFubyIgd2lkdGg9IjE4LjI3OTk5ODc3OTI5Njg3NSIgaGVpZ2h0PSIyMCIgdmlld0JveD0iMS4yNDYyOTA4MDM4OTEyNzAxZS04IDAgMTguMjc5OTk4Nzc5Mjk2ODc1IDIwIj4mI3hhOwk8c3R5bGUgdHlwZT0idGV4dC9jc3MiPiYjeGE7CS5zdDB7ZmlsbDojNjY5ZGY2O2ZpbGwtcnVsZTpldmVub2RkfSYjeGE7CS5zdDF7ZmlsbDojNDI4NWY0O30mI3hhOwkuc3Qye2ZpbGwtcnVsZTpldmVub2RkfSYjeGE7CTwvc3R5bGU+JiN4YTsJPHBhdGggY2xhc3M9InN0MCIgZD0iTTcuNjMgOWEuOTEuOTEgMCAxIDEtLjY0My4yNjdBLjkxLjkxIDAgMCAxIDcuNjMgOXptMC0uOGExLjcxIDEuNzEgMCAxIDAgMS43IDEuNzEgMS43IDEuNyAwIDAgMC0xLjctMS43MXpNMS43MiA5YS45MS45MSAwIDEgMS0uNjQzLjI2N0EuOTEuOTEgMCAwIDEgMS43MiA5em0wLS44YTEuNzEgMS43MSAwIDEgMCAxLjcgMS43MSAxLjcgMS43IDAgMCAwLTEuNy0xLjcxem0zLjA0IDYuMTFhLjkxLjkxIDAgMSAxIDAgMS44Mi45MS45MSAwIDEgMSAwLTEuODJ6bTAtLjc5YTEuNzEgMS43MSAwIDEgMCAxLjIuNSAxLjcgMS43IDAgMCAwLTEuMi0uNXptMC05LjczYS45MS45MSAwIDAgMS0uMDQgMS44MTkuOTEuOTEgMCAwIDEtLjktLjkwOS45Mi45MiAwIDAgMSAuOTQtLjkxem0wLS44YTEuNzEgMS43MSAwIDEgMCAxLjIuNUExLjcgMS43IDAgMCAwIDQuNzYgM3oiLz4mI3hhOwk8ZyBjbGFzcz0ic3QxIj4mI3hhOwkJPHBhdGggZD0iTTcuODEgMGgxLjY4djIwSDcuODF6Ii8+JiN4YTsJCTxwYXRoIGNsYXNzPSJzdDIiIGQ9Ik0xMy40IDIuODdIOC44OWEuMzcuMzcgMCAwIDAtLjMuNHYyLjgyYS4zNi4zNiAwIDAgMCAuMy4zOWg0LjUxYS4zNi4zNiAwIDAgMCAuMzEtLjM5VjMuMjhhLjM3LjM3IDAgMCAwLS4zMS0uNDF6bTQuMzIgNS4yOUg5LjRjLS4zMSAwLS41Ni4xOC0uNTYuMzl2Mi44MmMwIC4yMi4yNS40LjU2LjRoOC4zMmMuMzEgMCAuNTYtLjE5LjU2LS40VjguNTVjMC0uMjItLjI1LS4zOS0uNTYtLjM5em0tNS45MSA1LjI4SDguMjhjLS4xMyAwLS4yMy4xOC0uMjMuMzl2Mi44MmMwIC4yMi4xLjM5LjIzLjM5aDMuNTNjLjEzIDAgLjI0LS4xOC4yNC0uMzl2LTIuODJjLS4wMS0uMjItLjExLS4zOS0uMjQtLjM5eiIvPiYjeGE7CTwvZz4mI3hhOzwvc3ZnPg==;" parent="N3Vv8xPvsJctR40ruS8Q-15" vertex="1">
          <mxGeometry width="30" height="28" relative="1" as="geometry">
            <mxPoint x="15" y="16" as="offset" />
          </mxGeometry>
        </mxCell>
        <mxCell id="hNwgVkph9_-9w0Fj4r1G-7" value="Adobe Experience Cloud " style="verticalLabelPosition=middle;verticalAlign=top;html=1;shape=mxgraph.basic.rect;fillColor2=none;strokeWidth=1;size=0;indent=5;fillColor=#f5f5f5;fontColor=#333333;strokeColor=#808080;dashed=1;labelPosition=center;align=left;" parent="1" vertex="1">
          <mxGeometry x="440" y="160" width="680" height="180" as="geometry" />
        </mxCell>
        <mxCell id="hNwgVkph9_-9w0Fj4r1G-8" value="Adobe Customer Journey" style="shape=image;verticalLabelPosition=bottom;labelBackgroundColor=none;verticalAlign=top;aspect=fixed;imageAspect=0;image=data:image/png,iVBORw0KGgoAAAANSUhEUgAAANgAAADYCAMAAAC+/t3fAAAAkFBMVEX6DwD////5HRD9s6/5Fwr9qaT7W1L6Jhn/7ez8e3P6EQP/+vr6AQD9nZf/+Pj+5eT+8fH+4N76Kx7+2Nb8iYL+y8j7OzD7b2f7TUP7kYv7NSn9v7v8aF/7V038hX77U0n7RTn/0M78xMLyRjv8uLXzf3n3LiP8YVn6qqb3oZ3x7u7+2dj7aWD8eXH9n5r7Oy8SVyWCAAAJtUlEQVR4nO2daXuqPBCGAVk0RBaXoqIVPT3avrb1//+7V7pKWCbL5AhcPl9bNDeBcWYymRhms4IgCqfzdNAipftdHEWB3zxwo+Fvvh87I/fB86yWyfNW22Q5j5rY6sGC/ejPxLKJ0U4R2zuvnaEwWLxceDa99egBEWuV7IXApqOzdetR84lM3KfKJ7IKLHxc2bcesIAmbtWsVYA5WZewch3+hjBYnExuPU5xkcUAAksXtx6knA7LoBHsfXXrEcrKSsJ6MH/ZEVtYqWNcBxbMusxlGO60Gsyfdc0astqcKsHGXee6PI1hBdizd+thqYu8RSWw3eHWo8KQvWTBhttbjwlHXsqAPbY1PBFVFhbA9t029Fcio2uwaNuXCbs8jPMrsJf+cBnEjX7Ahg+3Hg2m7MEPWJ8m7KJt9AX2359bDwVXVvoF9tx9X6ogcgw+wHz31iPBlhd/gMU9cBKLssc5mN8Dr57VIriABb17Ei/m43QBG3YwKwXJdi5gaf+eRIMkgdH9hECVssgI1v1yOz5lhUbUM7fjU9bciHqREmBlO0bcmxDzWvbMmPcSjIyMPlr73N4bg36CvRp9i1m+5BrOHaxTuoN1TXcwKVFKSa0uf9X3zXrBqJWt30Z1SjY6F/K1gq2W9TVcuVJXX8SkE+yQNmLlqfWjNjJ9YDTPgUGKz7reM41gWQSDmY+6nhd9YPaMg8ucHjRNmTYwujrBWBcdtXy7zhlbc3GZA0/PlOkCo94TH1iQdQxsAVSP/2ip54nRBEZ/C0kgxSstU6YLbFWuZa1TouVHWhMYSbi5zHSiY8r0gNFJXTV8hfxth8C2vKYj19jSQKYFjFocbuKvhg+dAXtoDldYjTQ8NFrA7JEQlznXYD50gNHJXAxMRz2GlhlzRUxHLgfffGgAo5YjyGUO8R1GHWCZmOnIhR9vagCzH4W5zCm6w4gPRldTGKQk9BV+fDBylODCjzfRwahX2snFo2jRerAFT3KqrCXyTld0ML7kVFknZIcRG4yeZUxHLuR4ExtMJMIsCjneRAajE87kVFn+ptVg2wBGqBFuvIkLJhhhFhWiOozIYFkMA9RqhGk+cMHImwKXucd0GFHBKLzU16hja8GEI8yiHESHEROMWu9KXKgOIyqYRIRZFGLdNSYYkYgwi5riLUkjgtGVYHKqQgnSWHDB1mqmI9cAzWHEA6OecHKqrAhtgQIRTDLCLAqt7wYemGyEWVSMFW+igfFEmOMRvM75huQw4oHBEebUo0vQvmDFm1hgHMkpf3aZVvAnPHBbBrYFhzw8X37D4dwcUryJBcZR/jDI354NGGGHOA4jEhjNwMqpYJP/o7UDbwDO+iYSGEeEubM+/xE0H3OUeBMHjCM55X8F/gcweeCvWwTmgl5H+FXZTOCYDSXeRAHjqZJ1vn944aAtxHAYccDg5FT002vIhvMiGPEmChiByx/mP99C1qDF3yE4jBhgdAVWTgVXLqAH19QmLQE7giY8vtr2T2bgvyPEmwhg1HoBp2B87bOfQR8/UncYMcAW4ECHhTab5Bm8Eer1tAhgHMkpZufuBvzVmyovUKiD0TOYnIqY5JMNp7NGaoNCAUtAW3Bie9eMQIufqjqMymDUA98Yf8leNIEdRtUFCnWwDRxhZqWrxuAsvyumq5TBOCLMp3J+hsNhVIw3VcFotoOGGK3Ll9nwGrxiw0dlMDhw3FU9VK+gxZ+rLVAogtEJmJ0JZlUXwimCQM1hVAXjjzAZzUCLrxZvKoLBEab/XP2uwJtfhkoVLWpgHMmpaFNz7TP4cio5jIozxhFh1v0ewQ7jTsVhVALjKH8IHusutsHo1H+7GdgavOtxfXOoN9B8qMSbSmBw+YPv1F89Ad/PoYLDqAJGF6AvO2w6yAF2GBU6P6qAcUSY+6YPz0CLf5J3GBXA6JkjOdX0AQTOMMo7jCpgCfj2n5p7UsK2Rz7eVACD9+b478An7KBPiF7/PRjdgK9ICJ0BAzuML7K3XR6MwBFmCr0hZ9CsxrILFNJg9EE4OVUhOMM4kzQf8mDwGuYUbqwMJ0zmkgsUsmA85Q+l5FRZHA6jZLwpDeaC9zrOOD7nDbT4kqeuyIIReA0zNTju9QQsVArlFigkwTiSU5dIjNgllUwB7DAupcyHLBjHFu5gPy5ruWCGCTuMcvGmHBg9cO3N8csKQqbHFuEopPiHYLCXVz8BTPLpFbRCTzLxphyYrVBg7zMbaC34h16mokUKjC5kt/XlSpnythk4++8S914ODF4eb1DAuMZwZy6ZeFMGTHVvDvuNDnSb/Nk/AkvU6rXZc33g+Gcv3iFOBky8+wMjpqQILkKKxB1GCTC6VdnWlysu2m86Ap8AR3h9U2bGuJuE1YrZ8zzZQReEwgsU4mAYe3PmRYtPx2CKQNhhlACDIw1Q/qY4TrgsUHh9UxzMkur+wGhQbJkAV60Hog6jMBh1+dvV1SvKih+6Bh3GgaD5EAbjiDB5NC5OmQWmCELBBQpRMPqwQwELiyleCmcYx2LmQxgMLoPiE7NNHd7LJBhvioLxtiYFtWOCrBfQYXzUCUaPGKbjQ0wkDTuMqVC6ShBMJcIsjbMwA7DDOBRaoBAD40lO8Yrpo8vxuy90KKYgmGLAUhDTog9u8bcX6Y8vCHZU3XT/Kz9jPhv08VORo+0E3zG5blqVXM/szj571nzXAiGzKGruz84QRfG4fPuJOwgbrngUcqqEXSrbQ5FV+a221XCFXs/j42QPDIl/uNgw7+e2dE13sK7pDtY13cG6pjtY13QH65rc/h4Q2tsjXXt7CG9vj03u7UHXvT2avLeHyQfohwO0QVZo+IiNQ9ujLDLY1g29EEkCwxyKZI47ItsxDTPQcIDPrWWdLmC+wvaztmoRXMDMWK6yvcXKt2cbeg6Tuq28+APM7FvkQo7BJ9h/PXM+rHw9OwcTW91tv7bRNxhbzNpt2R/Lrh9gvZoy8tmK4xMs2vaHzPssP/gEM/e9CTe/eyJ+gan23mmPvrc3fYMNt/A1XZD3Xbr0DWbuepEi+G2T9QMmuxmyVSK/FVm/YCpNJtqiq6rDK7DuJwk2VxubrsDMYNZto+9e199eg5k+2pEOt9CxsC2hAGaa7yI1ga2SlRSLbxkw8wlqVdFSHZZMeTkLZsZJB80+WZQKKUtgpulkXbOOh7/lGvAKMDN8XHUJbeJWbSCpAjPN6ejcEftIJu5T5V6EarDLq7ZceMjHx+KLWKukbrtPHVjeBGH0Z2KV+zm0RMT2zmunvj66HixvghA7I/fB86yWyfMOi2Q5j5r2wzSBfcxbEIXTeTpokdL9Lo6iANjl8z/XCJ5sa3+mvAAAAABJRU5ErkJggg==;fontColor=#666666;fontStyle=1" parent="1" vertex="1">
          <mxGeometry x="720.94" y="214.5" width="71" height="71" as="geometry" />
        </mxCell>
        <mxCell id="hNwgVkph9_-9w0Fj4r1G-10" value="Adobe Custom API" style="aspect=fixed;sketch=0;html=1;dashed=0;whitespace=wrap;verticalLabelPosition=bottom;verticalAlign=top;fillColor=#2875E2;strokeColor=#ffffff;points=[[0.005,0.63,0],[0.1,0.2,0],[0.9,0.2,0],[0.5,0,0],[0.995,0.63,0],[0.72,0.99,0],[0.5,1,0],[0.28,0.99,0]];shape=mxgraph.kubernetes.icon2;prIcon=api;fontColor=#666666;fontSize=13;fontStyle=1;horizontal=1;" parent="1" vertex="1">
          <mxGeometry x="523.94" y="219" width="50" height="48" as="geometry" />
        </mxCell>
        <mxCell id="wJ6JWf97kPDAMJd_mPwP-7" value="" style="strokeColor=#dddddd;shadow=1;strokeWidth=1;rounded=1;absoluteArcSize=1;arcSize=2;" parent="1" vertex="1">
          <mxGeometry x="583.94" y="525" width="150" height="60" as="geometry" />
        </mxCell>
        <mxCell id="wJ6JWf97kPDAMJd_mPwP-8" value="Memorystore" style="editableCssRules=.*;html=1;fontColor=#999999;shape=image;verticalLabelPosition=middle;verticalAlign=middle;labelPosition=right;align=left;spacingLeft=20;part=1;points=[];imageAspect=0;image=data:image/svg+xml,PHN2ZyB4bWxucz0iaHR0cDovL3d3dy53My5vcmcvMjAwMC9zdmciIHhtbG5zOnY9Imh0dHBzOi8vdmVjdGEuaW8vbmFubyIgd2lkdGg9IjIwIiBoZWlnaHQ9IjIwIiB2aWV3Qm94PSIwIDAgMjAgMjAiPiYjeGE7CTxzdHlsZSB0eXBlPSJ0ZXh0L2NzcyI+JiN4YTsJLnN0MHtmaWxsOiM0Mjg1ZjQ7fSYjeGE7CS5zdDF7ZmlsbDojNjY5ZGY2O30mI3hhOwkuc3Qye2ZpbGw6I2FlY2JmYTt9JiN4YTsJPC9zdHlsZT4mI3hhOwk8cGF0aCBjbGFzcz0ic3QxIiBkPSJNMCAxLjk0aDMuMzN2Mi41OEgwem0wIDQuNTFoMy4zM3YyLjU4SDB6bTAgNC41MmgzLjMzdjIuNThIMHptMCA0LjUxaDMuMzN2Mi41OEgwek0xNi42NyAxLjk0SDIwdjIuNThoLTMuMzN6bTAgNC41MUgyMHYyLjU4aC0zLjMzem0wIDQuNTJIMjB2Mi41OGgtMy4zM3ptMCA0LjUxSDIwdjIuNThoLTMuMzN6Ii8+JiN4YTsJPHBhdGggY2xhc3M9InN0MCIgZD0iTTE2LjY3IDEuOTRsMi42NiAyLjU4aC0yLjY2em0wIDQuNTFsMi42NiAyLjU4aC0yLjY2em0wIDQuNTJsMi42NiAyLjU4aC0yLjY2em0wIDQuNTFsMi42NiAyLjU5aC0yLjY2eiIgZmlsbC1ydWxlPSJldmVub2RkIi8+JiN4YTsJPHBhdGggY2xhc3M9InN0MiIgZD0iTTMuMzMgMjBoMTMuMzRWMEgzLjMzem02LTlINmw0LjY3LTcuNzRWOUgxNGwtNC42NyA3Ljc0eiIgZmlsbC1ydWxlPSJldmVub2RkIi8+JiN4YTsJPHBhdGggY2xhc3M9InN0MSIgZD0iTTE0IDkuMDNoLTMuMzNWMGg2djIwSDkuMzN2LTMuMjN6IiBmaWxsLXJ1bGU9ImV2ZW5vZGQiLz4mI3hhOzwvc3ZnPg==;" parent="wJ6JWf97kPDAMJd_mPwP-7" vertex="1">
          <mxGeometry width="30" height="30" relative="1" as="geometry">
            <mxPoint x="15" y="15" as="offset" />
          </mxGeometry>
        </mxCell>
        <mxCell id="wJ6JWf97kPDAMJd_mPwP-10" value="Adobe Target" style="shape=image;verticalLabelPosition=bottom;labelBackgroundColor=none;verticalAlign=top;aspect=fixed;imageAspect=0;image=data:image/jpeg,/9j/4AAQSkZJRgABAQAAAQABAAD/2wCEAAkGBxIQEBUSDxAWFRUVGBUVGRgYGBcVFhsYFhcXFhUWFRUYHSggHR4lGxUWITEhJykrLi4uFx8zODMsNygtLisBCgoKDg0OGxAQGy0lICUtLS0tLS0tLS8tLS0tLS0tLS0tLS0tLS0tLS8tLS0tLS0tLS0tLS0tLS0tLS0tLS0tLf/AABEIAOEA4QMBEQACEQEDEQH/xAAcAAABBQEBAQAAAAAAAAAAAAAAAQIFBgcEAwj/xABHEAABAwICBQgHBQYDCQEAAAABAAIDBBEFIQYSMUFRBxMiYXGBkaEUIzJScrHBQmKCktElM0NzorM1suEVU2OTo8LD4vAk/8QAGwEBAAIDAQEAAAAAAAAAAAAAAAIFAQMGBAf/xAA4EQACAQMBBQQKAgIBBQEAAAAAAQIDBBExBRIhQVETMnGBBiJhkaGxwdHh8CNCFDPxFUNSYnIk/9oADAMBAAIRAxEAPwDcUAIAQAgBACAEAIBCUDeCMrMfp48tfWPBvS89nmvVTs6s+WPEq7jbFpR4b2X0XH46fEhqnS1x/dxgdbjc+AXths2P9mU9b0im/wDVDHiRs+P1D/4mr8IA/wBV6Y2dGPLPiV1TbF5P++PBfrOSStld7Urz+J36rcqVNaRXuR45XVeXenL3v7niXk7ST3qeEjU5SerBryNhI70wmYUmtGesdbK32ZXj8Tv1UHSpvWK9xujdV492cl5v7nXDj1S3+KT8QB/1WmVnRl/U9dPa95D++fFL/kk6bS1w/exg9bTY+BXmns2P9WWVH0imv9sM+BMUekNPJlr6h4Oy89nmvHUsq0OWfAt7fbNpW4b26/bw+OnxJQG+xeQtE09BUMggBACAEAIAQAgBACAEAIAQAgBAI5wAuTYIlkw2kssgMS0oYy7YRru47Gjv3qwo7PnLjPgviUN5t6lT9Wit59eX5/eJWa7E5Zj6x5t7oyb4KzpW9On3Uc1dX9e5f8kuHRaHGt54zznqGMF3vDR1kBQlOMdWbKdGpUeIRbIqq0npmfxNc8Ggnz2ea88r2lHnnwLGlsa6nqseL/WRk+m7B7EDj8Tg35By0PaK5R+J7Y+j8v7VF5LP1R4u05O6m/6n/oof9Rf/AI/E2r0fjzqP3fkQadHfTD/mW/7E/wCov/x+Ifo/DlUfu/J6Q6dsv6yncB914efAhqktornH4mqXo/L+tT3rH1ZI0ul9K+13lhO57SPFwuPNb43tKXs8Tx1di3UNEn4P/hkvTVkcovHI13YQV6Y1Iy7rK6pQqU3icWj3UzUddFiMsP7t5A4bW+BWmpQp1O8j1W17Xt3/ABy4dOXuLLhmlDH9Gcah94ZtPbwVZW2fKPGHH5nS2e36dT1a63X15fj5e0sDHAi4Nwd4Ve008M6CMlJZQ5YMggBACAEAIAQAgBACAEAIDixPE46dt3nM7GjaVuo0J1XiJ47y+pWsczfHkubKVieMS1B6Rs3c0bO/iruha06WmvU4u92lXuniTxHotPPr+8CPXpK8iMT0ihg6N9d3utzt2nYF5Kt3Tp8NWWdrsmvX9bG6ur+xWK7SqeS4YRG37ubvzH6WVfUvak9OB0Fvsa2pcZLeft0933yQkspcbucSeJN/mvK23qWkYqKxFYPMrBIaUMDCgGlANKAYUAMeWm7SQeINj5LKeNDDSawyaw7S6phyc7nW8H7e5+0d9x1L007urDnnxK242TbVuW6+q+2hcMI0tp57Ncebedzth7HbFYUryE+D4M5+62RXo+tH1l7PsT69hVHfhmLS056Bu3e07O7gV561tCquOvU91ntGtav1HldHp+C64XisdQ27DYja07QqSvbzpPjp1O0stoUrqOYPjzXNHctB7gQAgBACAEAIAQAgBAQ+O422nGq3pSHduHW79F7LW0dV5fBFRtPasLVbkeM+nT2v7FJnmdI4ueSXHaSryMVFbsdDiatWdWbnN5bODEsRjp2a0rrcBtcTwaFCrWjTWZG62tKtxLdprz5Io+MaTSz3awmNnAHpH4nfQKorXc6nBcEdXZ7Ko2/rS9aXV/REKF5S1FugEugEJQwNKAaUA0oBhQDSgGlAMKAaUBOYFpTNS2aSZI/cccx8Dt3Zsy3L00bqdPhqitvNmUbnjjEuq+pomD4xDVM1oXXI2tOTm9o+uxW9GvCqsxOUu7KrbSxNcOT5Mk4pXMcHMJDhmCNq2SipLD0PPCcqclODw1zLpgOOifoSWbJ5O6x19SpbqzdL1o6fI7PZm1o3P8dThP4Pw+xNrwl0CAEAIAQAgBACAh9IMZEDdVmcjtn3R7x/Rey0te1eXoviU+1dpq1juQ4zfw9r+hR3vLiS43JzJO0q9SSWEcTKTk3KTy2Q2P48ylbb2pCMm/V3ALzXFyqSxzLDZ+zp3Ty+EVq/ojPK2tfM8vldrOPgOoDcFTTnKbzI7GjRhRhuQWEeIKgbRboBboBLoBCUA0lAdtJg9RNnFTyPHENNu47FnBjKCrwOqiF5KaVo4lht5JhjKIy6wZGlANKAaUAwoBpQHrR1kkLxJE4tcN4+RG8dSlGbi8xNdWlCrFwmso03RbSdlYNR9mzAZt3OHvM+o3K5trpVVh6nIbR2ZK2e9HjD5exlia4g3BsRmCvU1ngyrTaeVqXXR3GueGpJlIP6hxHWqS8teze9HT5HabJ2ormPZ1O+viuvj1JxeEuwQAgBACAEBxYviAp4y85nY0cSt9vRdWe6vM8V/eRtaTm9eS6sz6eZz3F7zdxNyV0MYqK3Y6Hz+rVnVm5zeWyD0kxxtJHlYyO9lv8A3HqC89zcKlHhqe/Z2z3dTy+EVq/ojNqiodI8ve4uc43JKpJScnlnZwhGnFRisJDQVgmLdALdAF0AXQHRh1DJUStihbrPcbAfUncBxQN4NKiwjDsFjbJWkT1JFw2wdY/cYcgPvFTwlqa8uWhFV3KvUk2p6eGNu7W1nm3cWgeBTfM7g2i5WKpptPBDI37odG7xLnA+Cb43ETfoWGY6wuhHMVIFzkGv/G0ZPHWMxxTgzHGJl+O4RLRzOhnbZw2H7Lhuc07wotYJp5I0rBkaUA0oBpQDCgFilcxwexxa5puCMiCN4WU2nlEZRUk4vRmp6I6SCsZqvsJmjpDc4e+36jcrq1ue1WHqcdtPZztpb0e4/h7CyRSFpDmmxGYI4r0yipLDKyE5QkpReGjQMExIVEYdscMnDr4jqK5+5oOjPHLkd9s6+V3RUv7LVe0kF5ywBACAEAjnAC52DNZSzwMNpLLM+xzETUSl1+iMmjq49p/RdBbUFShjnzOA2leu6rOX9VwXh18yDxbEGU0TpX7BsG8uOxo/+4rZWqqnHeZotLaVxVVOPn7EZXX1r55HSSG7neAG4DqCoZzc5OTO6o0YUYKENEeAKgbR10At0At0AXQBdAadobEzDMMkxGZoMso9WDt1djGj4j0j1WU1wWTXLi8Gb4jXSVEr5ZnFz3kkk/IcANgG4BQNhzEoBpKA9KSrfDI2WJ5Y9hDmuG0EfMcRsIyQGq6RtbjODirY0CeAFxA29H96zjYjpDuU3xRrXqvBkBKgbBpQDSgGlAMKAaUB60VY+GRskTrOabg/MHqKlCTi95GurSjVg4TXBmx4Bi7KuBsrNuxzd7XDaD8x1EK+oVlVjvI4a9tJW1VwenJ9UT2EYgaeUPGzY4cW/qNqxcUVVhu8+RKwvJWtZTWmjXVfjkaHHIHAOabgi4K51pp4Z9BhNTipR0Y5YJAgBAV7S/ENRgiac37epo/U/Iqx2fR3pb70XzOf29ednTVCOstfD8/cpyuTjzMtL8Z9JmLWH1cZLW9Z2Od9B1DrVHdV+0nw0R2uy7L/AB6WZd58X9iCBXlLMUFAOugFugFugC6AALmw35eKA0vlbl5qnoadmTdVzrfy2sa3/O5Tka4aszK6gbBCUA0lAISgNO5FKgu9LgPs6sbwOt2u13kGqcDXMzKsiDJHsGxr3tHY1xA+SgbEeBQDSgGlANKAaUA0oYJvQ/HfQ6gax9VJZr+rg/uvn1XXptq3ZT46PUr9pWf+TRwu8uK+3mbAFeHEFt0PxDWaYXHNubfh3juPzVTtCjh9ouep1mwLzei7eWq4rw6eRZVWHSAgEcbC5RcTDeFlmcYpWGaVz9xOXYNi6ShS7OCifOr25dxXlU93hyKxpjino9MdU9OToN6r+0e4LVeVdynhas9WybXt6+XpHj9jLgqQ7QcCgFBQDroBboAugC6ANa2Y2oDT+VCP0jD6KrZm1oseoStbmfxRgd6nLQ1x1MvuoGwQlANJQCEoDUeR6DmaesrJMmWDbnhEHPcQeHSt+FTia59DLZ5tdznnIuc535iT9VA2HkUAhQDSgGlANKGBpWQMKA1jk/xf0ilDHG74bMPEt+wfDLuVxZVd+G69Ucftm17KvvrSXHz5lvw+qMMrZB9k59m/yXoq01Ug4ngtbh29aNVcn8OZpDHhwBGwi65trDwz6NGSkk1zHLBIiNKKrm6dwBzfZg7D7XlfxXrsqe/VWeXEqdtXHZWsktZcPfr8CiK/OFMv05xDnqtzQejENQfFtefHL8IVHeVN+q+i4Ha7It+ytk3rLi/p8PmQAK8pZi3QC3QC3QC3QC3QBdAF0BpvJliMdXTS4XU3IIc6M7eic3C+4td0h223KcePA1yWHko+k2ATUE7opmm21j7dF7dxB48Ru8CYtYJp5Ii6wZG3QElo/gc1dOIadpN/adbosbvc4/TespZMN4L/AMouJQ0FCzCqV2ZDecI2ht9Y61t7yM+q/FSlwWCEVl5MqJUDYNJQDSgGlANKAQrJgaUA1AT+g2Jej1rLnoy+qdw6R6B7nW7ASvRa1NyovbwK/alv21tJLVcV5a/A2BXpxBeNE6rXpw07YyW921vkbdyor+nu1c9eJ2+wrjtbVResXjy5fDh5E0vEXJUNNKi8jI/dBce05D5K42bDEXI5L0irZqQp9Fn3lVr6kRRPkdsY1zvAXXuqS3IORRW9J1asYLmzFZJC5xcdriSe05lc83nifQUklhACsGRboBboBboCQo8FqZs4qaV46mOt4rOGYyh9VgVXELyUsrR1scmGMojbrBk7cIwyWrmbDTs1nu8AN7nHcBxRIw3g1Wael0cpdRlpauUXPE9bvdjG4b/FbO6a+MmQ+E8o0NRH6PjEAkaT+8a24HW5m0W4tuepYUuplxxodTdAsLrDeiryL7GhzH91ndK/VdN1MbzQ5/J3htIdaurzYfZc5kQ8ul5puobzZy4ryh0tJEafBoAN3Oluq2/FrT0nHrdbvTexoFFvUzGondI5z5HFznElzibkk7SSoGw8iUBIYPgNTWG1LA+TiQLNHa45LKWTDeC0Q8kuJOFz6OzqdK6/Z0GOHms7rMb8ThxLk0xOBusYGyAf7p4efymzvJN1jeRUZo3McWvaWuGRBBBHaComTyKyBCgEQChxBuNoz8EGpueE1gngjlH22NdwzIzy7broaU9+CkcBdUuyrSh0Za9Dai0rme82/e3/AEK8W0YZgpdC49Hq27WlT6r5FyVMdgZ9pDNr1Mh4HVHcP1uuhtI7tGPvOA2tU7S8m+jx7vzkpen9VzdE4XsZHNYO86zh+VrlrvpYpY6m7YlPfuc9E39PqZaCqY7EddALdAdeF4fLUythgYXPebAfMk7gOKIw3g1SDBcNwKJstcRPUkXDbB2fCJhyA+8fLYp4SIZctCIr+V2pJtTU8MbN2vrSO6thaB2WPam8NwZRcrtY0+ughkbvAD43fmu4f0rG8Z3ETopsLx9h5oej1QF9gDr2+00ZSN7M+xS4MxxiOqZ6bRulDIwJauYXJO/7zuEYOxu0+JTumO8zJsRr5KiV0szy97zck/IcB1LWbUc10BNaEf4nSfzo/msow9CV5XP8Wl+CH+2FmWpiGhTSVEkISgL1ybaC+nnn6m4p2mwAyMjhtAO5o3nuUoxyQlLBslVV0uHwDXdHBE3IDJo7GgbStmhr4sptVyw0LXWZFPIPea1jR4PcD5KO+iXZsmNH+USgrHBjZTHIdjZBqE9QdsJ7CsqSMOLR76Z6F0+JRnXAZMB0JQOkDwd7zeIRrIUmj53xnDJaSd8E7dV7DY8CNzmneCNhWs2nCgBACA1Tk2qtei1f929zfGzx5OAVvYSzTx0ZyO3Ke7cKXVL7F5wOXUqIz963jl8yFuuo71KS9h5NmVOzu6b9uPfwNEXOn0IzKrfrSPdxc4+LiV09NYgl7EfNK8t+rOXVt+9lC5UZiGQM3OdI/vYGtH9wqv2i+6vEvvR+H+yXgvmUEFVh0ot0At0BrWgVPHheFyYnO0GSQHmwdupfVjaD9859llNcFk1y4vBmOJ4jLUyumneXvebknya0bgNgCg2TSwct0MhdAe1LUvie2SJxa9hDmuBsQRmCgNbxgNx3B/SGtHpNPcmwz1mj1jOxzcwONls1Rq7rMeBWs2hdATeg5/adJ/Pj+ayjEtCV5XT+1pfgh/thZlqYhoUy6iSOnCqJ1RPFAzbI9rB+I2usowz6XtDh9JubFTx9mTB9fqtuiNOrMEnmrMer7NuS4nVaSebijHV895J8NfFs28EjSsO5IqFjLTvllfbNwdqDuaApbpBzZVNO+S80sTqihc6SNmb43ZvaPeaR7VuG1YccEoyzwZYORzS99Sw0dQ8ukjbrRuJu50ewtJ3ltxnwIWYvkYmuY3lywJr6dlY0dOJwY88WPNhfsdb8ySRiD5GJqBsBACAv/JTKf/0MvkOacB1nXBP9LVY7OfGS8DnfSCHq05eK+RocT9VzXcCD4G6spLKaOcpz3JqXRp+5mmay5jB9MyZgupPmJn/KkenT9kvzj/QKp2h34+B1Po//AKp+K+RR7qvL8W6ADnkN6A1rlgk5mhoqZmTdvdGwNA/qB7lOWhrhqZPdQNgt0AXQBdAafyG1JMtVAfZcxj7dYJY7xDm+CnE1zM6xWIRzysGxskjR2BxA8lBk0ct0Mk3oMf2nSfz4/msoxLQluV4/taX4If7YWZakYaFLuoky08lzA7GKUHjKe9sErh5gLMdSMtGatywyubhMurvfE09hkbfx2d62S0IQ1K/yD0zeaqZbDX12MvvDQ29vFYiJmqqRAa5gcCCLg5EdR2oD550F9Vj8bIj0eemZlldurJl2dEeC1rU3Pus2PlJjDsJrA7dEXd7SHN8wFOWhrh3kfNC1m0EAIC5clstqqVvvRa35XsA/zle2wf8AI17Ck29HNvF/+30ZpjtiuEck9C9+mHiqHsjuv8p9SjOFiVeo4drDwZ9yqDpU3WJvLmv1VXtDvR8Dp/R9/wAc/FfIot1XF+LdDIE8EBrvKgz0vCaOsjFw3UJ6myMAP9QaFOWhrjweDJLqBsFugC6ALoDVeRGlMbaurfkwBsYJyHRu957M2+anE1zMwrqnnZZJPfe9/c5xI+agTPC6GSc0FP7To/58fzWURehLcr/+LS/BD/bCzLUxDQpd1EmTGhuIimxCmmd7LZBf4XAsd5OKytTD0PoXS3CBXUU1OCLvb0Tu1h0mHxAW1rKNKeGYtydaVf7JqpIqppbG86kmVyx7DYOtvG0Fa08G2SyjdqXFYJWB8c8bmnMEPbb5rZk1YKpp5ygU9FC5kEjZahwIa1p1g2/23kbAOG0rDkZjHJRuRTAnTVb62T2ItYAke1K/aQeoE/mUYonN8C8csWJCHC5GX6U7mRjs1g9/k23esy0IQ1PntQNoIAQFv5LgfTJDu5hw8ZIiPkV7LD/b5fYptuv/APMv/pfJmnu2K5RyD0Ln6MeCpe0Oz7BlTrWassg4PePBxVtTeYRfsRydxHdrTj0k/mzP+VSC8cEnuvez/mNDv/EvBtFd1+Je+j8uNSPg/n9zPbqtOkFusAW6A1PkpxqKop5MJrDdr9fmrm1w7N7AeIddw7SpxfIhJcykaWaMzYbOYpgSwk83Jbovbuz9620KLWCSeSEusEhboCS0ewOaunbDTsJJI1nW6LG3ze87h1b7ZLKWTDeDS+UDEIsKw5mF0jvWPbaQ7ww5vc7recuwlSfBYIR4vLMhuoGwLoCd0EP7Uo/58fzWUYehLcsH+Ly/BD/bCzLUxHQpV1EyIVkG8ck2mIrIBSzO9fC0Zn7cYyDu0ZA9xU4s1zXM7NN+TunxEmVh5mosAXgXa62Q5xu82yvttlwWXHJhSwZnUclOJxuswRvHFsmr4ggfVQ3WbN9Exo/yOTOcHV0zWN2lkZ1nHq1yAB4LKiYc1yNapKanoaYMjDYYImk8GgbS5xO0k3JO0kqehr4s+feUbSw4lVazLiCO7YgcieMhHE8NwWtvJtisIqiwZBACAvnJTH06h3ARAd5kJ+TVYbPXrSZQekEv44R9rfuX5NFYzWIbxIHibK0bwsnMRjvNR68PeaZqdS5jJ9L3Sh6RRalTJ1kO8R+t1f2ct6jE4Ta1PcvJ+3j719ykcodLzlC8gXMbmSDqsdVx7muctd9HNLPRm/YlTducdU19foZNdU514t0At0A6OQtIc0kEEEEGxBGYII2FAajgHKZBPCKbGoucbYDndXXBtvewZg9bfBS3upBx6HYdAMIrOnQ1+rf7LZGPHe13SHZkm6mN5rVAOTjC6Xp1uIXA2hz44x5Z+abqG83ohmKcotFQwmnwWAE7Oc1S1l/es6znnrOSb2NBut6mVVdU+aR0kry97zrOc7Mk8SokzxusAksHwGqrDalp3y9YADR2vcQ0d5WcDKRoOiPJhXQVcFRM6FrYpGPLQ9zn2BzGTdW/epKLIuSwM5VdEK6eukqYKcyRFkYuwtLgWtAN2X1t24FGnkRawZfI0tJa4EEZEEWI7QVEkduBYNNWztgp2az3flaN7nHcAgbwaviOIUujVL6PTWlrJRdzt/xycGg31W7/ABU9CHe4kTo1ywyxtDK+LnbfxGWa/wDE05HussKQcFyLlByr4U4XdNIw8HQyE9nQDh5rO+jHZs4sS5YaBg9QyWZ3w823vL8/JN4bjMu0v04qsSOrKdSEG4iZfV6i87XHyUW2yaSRWVgyCAEAIDUeTKm1aNzz/EkcRxs0BlvFpPerbZ8cQb6s5Tb1TNaMOi+fEveDQ69RGPvA/lz+i9FzLdpSfsPBs6n2l1Tj7c+7iaKucPoZUNNILSMfxBae0Zj5q42bPMXE5L0io4qQqdVj3FUxClE0T4iLh7XN8RZe6rHeg4lHbVeyqxn0ZhUkZaS121pIPaDYrnj6AmnxQ1AF0At0AXQAQDtF1gzkGtA2ABBkW6yYC6AvXJxoQK7WqasllLETfdzhbm4a25o3nu4rKWTEngltIuVHmh6Ng8TIomdESFoztl6tmwD7xzPALLl0MKHUo1VpXXSm76yYnqeW+TbKOWSwiRwjlDxGmIIqDI33ZRrt/XzWcsw4pl7idQ6TQuBYKauYL3HSvbffLXYd4OY+edSPGPgPxOuptGqTmKYCWslAJcR/1H8Gjc3f4rPdHe1MerauSeR0szy97zdzjtJUCZ4IAQAgBACAEAIAtwQG4YFRcxTRRb2saDuN7XN+u5V/bw3KaRwd9W7W4nP2lu0Og1pi/wB1vm5eXaM8U1Hqyz9H6O9cOfRfMuapTsiH0ppecp3EbWWf3D2vK/gvZY1N2ql14FRtuh2to2tY8fv8Ciq+OGMj0/w7ma1zgOjMOcHbsePzC/UHBUV3T3Kr9vE7bZVftraOdVwflp8CuLzliCAEAIAQAgBAdOG0bp5o4We1I9rB+I2ugNQ5WsUFFTwYVSnUaIw6S29gu1rSdvSc1zj2DipSeOBCKzxZkyiTBACA6cNxCWmmZNA8tkjIc09m48QdhCA1flVpo67DKfFIm2I1Nb4JDq2PZJYd6lLTJCPB4MfUSYIAQAgBACAEAICa0Ow30msjaRdrDzrvhYQQO92qOwlbren2lRI8d/cdhbynz0Xi/wBybKr84Qu2iNLqQa52yG/cMm/U96o9oVN6ru9Dtdg2/Z22+9ZPPlovv5k4vCXYjm3BB2HJZTxxMNJrDM3xKkMMrozuOXYdnkuko1O0gpHzm8tnb1pU3y08ORUtPcI9IpS5ou+K728SPtt8M+5ee9pb8N5ao92xrrsq249JcPPkZIqc7AEAIAQAgBACAtHJiwOxalvueT3hriPNZWpiWh08rkhdi899wiA7AwJLUR0KcsGQQAgBAbBgB19E6gPz1W1FvwP1m+BAUv6kceujH1EkCAEAIAQAgBACA1Lk5wnmabnnDpTWcPgHseNye9W1jS3Y775nKbbut+qqS0jr4lzo6YyyNY3a427t58F66k1CLk+RU29B16sacebNJijDWho2AADuXNSk5PLPo8IKEVFaIesEwQFc0ww/WYJmjNmTvh49x+astn1sS7N89PE5zb9nvwVeOsdfDr5FQVuckngyDTTAvQ6g6g9VJdzOA95ndu6rcFR3NHsp4WnI7jZ15/k0U33lwf38yvrznvBACAEAIAQEpotiPotbBOdkcjSey9neRRBrJdeW/Ci2rjq2i8c8bW63/EZfLvZqkfCVmWpGGmDNlgkCAEAIDZNKY/8AZmjcdK7KWfUaR1ucJZf6Rqn4lJ8EQXGWTG1EmCAEAIAQAgBATOimCGsqAwj1belIfu+72nZ4rdQpOrPd955L67VtSc+fLxNla0AAAWAyA6hsCvksLCOElJyeXqWvQ7D7XncNvRb2faP08VVbRrf9teZ1Ho/Z4TuJc+C+r/fqWhVZ04IAQDZGBwIIuDkVlNp5RGUVJOL0ZnuMYeaeUs+yc2niP9Ni6K3rKrDe58z59tCzdrWcOWq8PwV/SDCGVkDon5Ha13uuGw9m4jgUr0VVhj3GLG7lbVVNac17DGa2kfBI6KVuq9psR9Qd4KopRcXhnc05xqRU4vKZ4LBIEAIAQAgBAa5oJjEGK0RwrEHesaLRPPtOA9gtJ+2zzFutSXHgyD4PKKDpXonU4bIWzsJjvZsoF43DdnuPUfNRawTTzoQKAVouQALkmwAzJJ2AAbSgNW5O9AeZtX4oBGyMc4yN+VrZiSUHZbaGnO9t6klzZFy5IqPKFpacTqtZtxDHdsTTkSN7yNxPDcFhvJlLBVlgyCAEAIAQAgPSmgdI9rIxdziGgcSVlJt4RiUlFOUtEbJoxgbaKAMGb3dJ7uLuA6hsA795V3bUOyjjnzOJ2jeu6q5XdWn38yxYXQmeUMGza48G7yp16ypQcmarK0ldVlTXm+iNEhiDGhrRYAWHcudlJyeWfQqdONOKhHRD1EmCAEAICPxrDRUR6uxwzaevh2Fei2rujPPLmeDaNjG7pbvNaP2mfyRlpLXCxBsQdxXQpqSyjgJwlCTjJYa1KzployKxmvHYTMHROwOHuO+h3Lx3Vt2i3o6/Mtdl7R/x5blTuP4e37mTzROY4te0tc02IORBG4qnaxqdemmsoYhkEAIAQAgFa4gggkEEEEGxBGYII2FAaRo5ysSxx8ziEQqWWtrZa5HB4I1XdqkpEXFciTOPaMy9KSj1Sdo5p7fARusnAxiSPRmn2DUIvh9Dd/vc2GH87iXW6kykN1vUoel2m1ViRtM7UiBuImezfi47XHt8FhvJJJIrawZBACAEAIAQCsaSQACScgBmSTsACA1TQnRf0RvOzAc84Wtt1Gn7I6zvPcra0ttz15a/I5Pau0u2fZU36q1fX8FrY0kgAXJyAG0le5tJZZSxi5NKKy2X7AcLFPHY+27Nx+g6gqC6uO1nw0Wh3uy7BWlLD7z1+3kSa8pZAgBACAEAICC0jwXnhzkY9YN3vDh2r32d12b3ZafIo9r7L/yI9rT76+K+/QpbhY2ORCuk8nGNNPDKzpbooysHOR2ZMBkdzgPsv+h3Lx3NqqnrR1+Zb7O2o7f+Opxj8v3oZZW0kkMhjlYWvbtB8iOI61USi4vDOthONSKlF5TPBYJAgBACAEAIAQAgBACAEAIAQAgPWmp3yvDI2FzjsAFyspNvCMSkorek8I1DRHRBtJaWaz5rdrWX3N4n73gra2tFD1p6/I5TaW1XWzTpcI831/BagF7Sk1Llo1gnNDnZR0zsHujr61TXl1v+pDT5nY7H2X2C7aqvWei6L7lgVeX4IAQAgBACAEAICCx/ARN6yLKTeNzu3r6177W8dP1ZafIo9qbIVx/JS4T+D/PtKZIwtJa4EEZEHaFdJprKONlGUJOMlhoiscwKGsZqzNzHsvGT29h4dRyWmtQjVXHXqeuzvqtrLMdOa5GX6RaLz0ZLnDXi3SNGQ4a4+z8lUVredLXTqdbZ39K5Xqvj05/kg1oPaCAEAIAQAgBACAEAIAQAgJnR7RuetN2N1Y98jvZ/D7x27OC20qE6r9X3nkur2lbL13x6czUNH9HoaJlohd59qR3tO/QdQ8zmrihbRpLhr1OSvdoVbp8eEeS+/VkuxpJAAuTkANpPUt7aSyzwxi5NJLLZcsAwARWklzfuG5v6lU13eOfqQ0+Z2Gy9jqhirV4y5LkvyT6ry/BACAEAIAQAgBACAEBHYtg8dQMxZ+5w29h4hemhczovhp0K6+2bSu1l8Jcn+6opWI4bJAbSNy3OHsnv+iu6NeFVZi/I4u7sa1rLFRcOT5P96HGRfatrWTyptPKKtjWg1PPd0XqX/dHQ72fpbYvFVsYS4x4Fza7arU+FX1l8SjYrolV09yYjI33o+mO9o6Q8Ldar6lvUp6o6C32jb1+EZYfR8H++BBEWNjtWg9oIAQAgBACAEAAXyG1ATeF6KVdRm2Esb70l2DuBGse0Cy3U7epU0R46+0Leh35cei4v98S8YLoJTw2dP65/3hZn5N/fdWFKxhHjPic/dbbq1OFL1V8S1taALAWAyAGQ7gvcklwRSyk5PLOvD8OkndaNt+Ljk0dp+i1Va8KSzJnptbKtcyxTXnyXmXXCMFjpxf2n73H5N4BUtxdTq8NF0O0sNmUrRZXGXX7dCTXlLIEAIAQAgBACAEAIAQAgBAMljDgWuAIO45hZjJxeURnCM47sllFcxPRUG7qd1j7rtncdysqO0GuFReZzl56PqXrW7x7Hp5Pl+6Faq6OSI2kYW/LuOxWdOrCosxeTm69tVoPFSLXy954LYaDjr8KgqP30LH77kC9+N9q0zoU56o9dG+uKXcmyvVXJ9SP9gyR/C7W/zg+S80rCm9G0WNPb1ePeSfw+RFy8mpz1KsW3B0XzcH/RaXs+XKXwPXD0gh/am/J/hHC/k6qr9GWAjiXSA+AjPzUHYVfZ++RuW3bZ6qXuX3BnJ1VX6UsAHEOkJ8DGPmn+BV9n75GXt225KXuX3O2Lk1OWvVjrDYvkS/6Ka2fLnL4GifpBD+tN+b/DJWl5PaRvtukk+Jwb/kAW6NhTWrbPHU27Xl3Ul8fmWCgwiCD9zCxm+4AvfjfavTChThoiurXter35s7VuPKe9JSSSm0bC7s2d5WupUhTWZPBvoW1WvLdpxb/epY8N0Vt0qh1/ut2d7t/cq2ttHPCmvM6Kz9H0vWuHn2LTzf75llhiawBrAABuGSrJScnlnSU6cacd2Cwh6wTBACAEAIAQAgBACAEAIAQAgBACAbJGHCzgCOBzWVJp5RGUIzWJLKIes0Zgfm0GM/d2flP0svZTv6sdePiU9xsK1qcYZi/Zp7n9MEPU6KSt/dva7t6JXshtGm+8sFRW9Hq8f9ck/gRk+Ezs9qF3cNb5L1RuaUtJIrauzrqn3qb8uPyOR7C32gR2gj5rcmnoeSUZR7ya8eAzWHFZwQyg1hxTAyh7GF3sgnsBPyWG0tScYyl3U34cTrgwmd/swu7xq/NaZXNKOskeuns66qd2m/Ph8yTptFJXfvHNb/UV5p7RprurJZUfR6vL/ZJL4kvR6MQMzfeQ/eyH5R9brx1L+rLTgW1vsG2p8Z5k/bp7l9ckxHG1os0ADgBZeJycnllzCEYLEVhD1gkCAEAIAQAgBACAEAIAQAgBACAEAIAQAgBACAEAxykiDIWu2le2kU1zqxKHaEqmLbUm2rxMukPUSYIAQAgBACAEAIAQAgBACAEB/9k=;fontColor=#666666;fontStyle=1;fontSize=13;" parent="1" vertex="1">
          <mxGeometry x="953.94" y="214.5" width="71" height="71" as="geometry" />
        </mxCell>
        <mxCell id="wJ6JWf97kPDAMJd_mPwP-13" value="" style="endArrow=classic;html=1;rounded=0;exitX=1;exitY=0.5;exitDx=0;exitDy=0;labelBackgroundColor=none;edgeStyle=orthogonalEdgeStyle;curved=1;strokeWidth=3;strokeColor=#0000FF;entryX=0.005;entryY=0.63;entryDx=0;entryDy=0;entryPerimeter=0;startArrow=classic;startFill=1;dashed=1;" parent="1" source="35dKP0a0qPvihtCSCPD3-11" target="hNwgVkph9_-9w0Fj4r1G-10" edge="1">
          <mxGeometry width="50" height="50" relative="1" as="geometry">
            <mxPoint x="430" y="330" as="sourcePoint" />
            <mxPoint x="360" y="250" as="targetPoint" />
          </mxGeometry>
        </mxCell>
        <mxCell id="wJ6JWf97kPDAMJd_mPwP-15" value="Komunikacja z POS" style="text;html=1;align=center;verticalAlign=middle;whiteSpace=wrap;rounded=0;fontSize=13;fontStyle=1;fontColor=#666666;" parent="1" vertex="1">
          <mxGeometry x="317" y="200" width="97" height="30" as="geometry" />
        </mxCell>
        <mxCell id="wJ6JWf97kPDAMJd_mPwP-17" value="" style="endArrow=classic;startArrow=classic;html=1;rounded=0;exitX=0.5;exitY=0;exitDx=0;exitDy=0;exitPerimeter=0;edgeStyle=orthogonalEdgeStyle;curved=1;strokeWidth=3;strokeColor=#B3B3B3;dashed=1;dashPattern=1 1;" parent="1" source="hNwgVkph9_-9w0Fj4r1G-10" target="wJ6JWf97kPDAMJd_mPwP-10" edge="1">
          <mxGeometry width="50" height="50" relative="1" as="geometry">
            <mxPoint x="683.94" y="330" as="sourcePoint" />
            <mxPoint x="943.94" y="240" as="targetPoint" />
            <Array as="points">
              <mxPoint x="548.94" y="190" />
              <mxPoint x="843.94" y="190" />
              <mxPoint x="843.94" y="235" />
            </Array>
          </mxGeometry>
        </mxCell>
        <mxCell id="wJ6JWf97kPDAMJd_mPwP-18" value="" style="endArrow=classic;startArrow=classic;html=1;rounded=0;exitX=0.995;exitY=0.63;exitDx=0;exitDy=0;exitPerimeter=0;entryX=0;entryY=0.5;entryDx=0;entryDy=0;strokeWidth=3;strokeColor=#B3B3B3;dashed=1;dashPattern=1 1;" parent="1" source="hNwgVkph9_-9w0Fj4r1G-10" target="hNwgVkph9_-9w0Fj4r1G-8" edge="1">
          <mxGeometry width="50" height="50" relative="1" as="geometry">
            <mxPoint x="833.94" y="360" as="sourcePoint" />
            <mxPoint x="883.94" y="310" as="targetPoint" />
          </mxGeometry>
        </mxCell>
        <mxCell id="wJ6JWf97kPDAMJd_mPwP-20" value="Wewnętrzna komunikacja&lt;div&gt;Adobe&lt;/div&gt;" style="text;html=1;align=center;verticalAlign=middle;whiteSpace=wrap;rounded=0;fontSize=13;fontColor=#666666;fontStyle=1" parent="1" vertex="1">
          <mxGeometry x="583.94" y="210" width="60" height="30" as="geometry" />
        </mxCell>
        <mxCell id="wJ6JWf97kPDAMJd_mPwP-21" value="" style="endArrow=classic;html=1;rounded=0;fontSize=13;strokeWidth=3;edgeStyle=orthogonalEdgeStyle;curved=1;entryX=0.682;entryY=0.016;entryDx=0;entryDy=0;entryPerimeter=0;strokeColor=#0000FF;dashed=1;exitX=0.005;exitY=0.63;exitDx=0;exitDy=0;exitPerimeter=0;" parent="1" source="hNwgVkph9_-9w0Fj4r1G-10" edge="1">
          <mxGeometry width="50" height="50" relative="1" as="geometry">
            <mxPoint x="430" y="260" as="sourcePoint" />
            <mxPoint x="798.2799999999997" y="400.96000000000015" as="targetPoint" />
            <Array as="points">
              <mxPoint x="524" y="260" />
              <mxPoint x="390" y="260" />
              <mxPoint x="390" y="350" />
              <mxPoint x="798" y="350" />
            </Array>
          </mxGeometry>
        </mxCell>
        <mxCell id="wJ6JWf97kPDAMJd_mPwP-22" value="Request na silnik decyzyjny" style="edgeLabel;html=1;align=center;verticalAlign=middle;resizable=0;points=[];fontSize=12;labelBackgroundColor=none;fontColor=#666666;fontStyle=1" parent="wJ6JWf97kPDAMJd_mPwP-21" vertex="1" connectable="0">
          <mxGeometry x="-0.0604" y="1" relative="1" as="geometry">
            <mxPoint x="55" y="-19" as="offset" />
          </mxGeometry>
        </mxCell>
        <mxCell id="wJ6JWf97kPDAMJd_mPwP-23" value="" style="endArrow=classic;startArrow=classic;html=1;rounded=0;entryX=0.681;entryY=1.014;entryDx=0;entryDy=0;entryPerimeter=0;exitX=0.825;exitY=0.003;exitDx=0;exitDy=0;dashed=1;strokeWidth=3;strokeColor=#0000FF;edgeStyle=orthogonalEdgeStyle;curved=1;exitPerimeter=0;" parent="1" source="wJ6JWf97kPDAMJd_mPwP-28" edge="1">
          <mxGeometry width="50" height="50" relative="1" as="geometry">
            <mxPoint x="871.0200000000002" y="550" as="sourcePoint" />
            <mxPoint x="871.6799999999998" y="460.84000000000015" as="targetPoint" />
          </mxGeometry>
        </mxCell>
        <mxCell id="wJ6JWf97kPDAMJd_mPwP-28" value="" style="strokeColor=#dddddd;shadow=1;strokeWidth=1;rounded=1;absoluteArcSize=1;arcSize=2;" parent="1" vertex="1">
          <mxGeometry x="791.94" y="525" width="130" height="60" as="geometry" />
        </mxCell>
        <mxCell id="wJ6JWf97kPDAMJd_mPwP-29" value="Cloud Run" style="editableCssRules=.*;html=1;fontColor=#999999;shape=image;verticalLabelPosition=middle;verticalAlign=middle;labelPosition=right;align=left;spacingLeft=20;part=1;points=[];imageAspect=0;image=data:image/svg+xml,PHN2ZyB4bWxucz0iaHR0cDovL3d3dy53My5vcmcvMjAwMC9zdmciIHhtbG5zOnY9Imh0dHBzOi8vdmVjdGEuaW8vbmFubyIgd2lkdGg9IjM2NS40NjQ5OTY3NzA0MjQ5MyIgaGVpZ2h0PSIzNzkuMjIyOTk0NDYzNTc3OTUiIHZpZXdCb3g9IjAgMCA5Ni42OTU5OTkxNDU1MDc4MSAxMDAuMzM1OTk4NTM1MTU2MjUiPiYjeGE7PHN0eWxlIHR5cGU9InRleHQvY3NzIj4mI3hhOwkuc3Qwe2ZpbGw6IzQyODVmNDt9JiN4YTsJLnN0MXtmaWxsOiNhZWNiZmE7fSYjeGE7PC9zdHlsZT4mI3hhOwk8cGF0aCBjbGFzcz0ic3QwIiBkPSJNMjkuNzk0IDEwMC4zMzZMNDYuOTIgNTAuMTY4aDQ5Ljc3NnpNMCA5OS42NzFsMTIuOTc2LTQ5LjUwMkgyOS4yMkwxNi44OTcgOTIuMDU0eiIvPiYjeGE7CTxwYXRoIGNsYXNzPSJzdDEiIGQ9Ik0yOS43OTQgMEw0Ni45MiA1MC4xNjhoNDkuNzc2ek0wIC42NjZsMTIuOTc2IDQ5LjUwMkgyOS4yMkwxNi44OTcgOC4yODN6Ii8+JiN4YTs8L3N2Zz4=;" parent="wJ6JWf97kPDAMJd_mPwP-28" vertex="1">
          <mxGeometry width="30" height="30" relative="1" as="geometry">
            <mxPoint x="15" y="15" as="offset" />
          </mxGeometry>
        </mxCell>
        <mxCell id="wJ6JWf97kPDAMJd_mPwP-31" value="" style="endArrow=classic;startArrow=classic;html=1;rounded=0;edgeStyle=orthogonalEdgeStyle;curved=1;strokeWidth=3;strokeColor=#FF0000;dashed=1;dashPattern=1 1;fontSize=14;" parent="1" source="csZAQCQQc5b0pGnJKB85-5" edge="1">
          <mxGeometry width="100" height="100" relative="1" as="geometry">
            <mxPoint x="433.78" y="448.2400000000001" as="sourcePoint" />
            <mxPoint x="440" y="250" as="targetPoint" />
            <Array as="points">
              <mxPoint x="340" y="430" />
              <mxPoint x="340" y="250" />
            </Array>
          </mxGeometry>
        </mxCell>
        <mxCell id="wJ6JWf97kPDAMJd_mPwP-32" value="ETL/ELT" style="edgeLabel;html=1;align=center;verticalAlign=middle;resizable=0;points=[];fontStyle=1;labelBackgroundColor=none;fontColor=#666666;fontSize=13;" parent="wJ6JWf97kPDAMJd_mPwP-31" vertex="1" connectable="0">
          <mxGeometry x="0.0185" y="-1" relative="1" as="geometry">
            <mxPoint x="39" y="62" as="offset" />
          </mxGeometry>
        </mxCell>
        <mxCell id="csZAQCQQc5b0pGnJKB85-3" value="&lt;span style=&quot;font-size: 12px; text-align: center;&quot;&gt;Środowisko analityczne, PMI, Data strategy.&lt;/span&gt;" style="rounded=0;whiteSpace=wrap;html=1;fillColor=none;dashed=1;dashPattern=1 4;verticalAlign=bottom;labelPosition=center;verticalLabelPosition=top;align=left;fontColor=#666666;fontSize=12;" parent="1" vertex="1">
          <mxGeometry x="523.94" y="680" width="500" height="280" as="geometry" />
        </mxCell>
        <mxCell id="csZAQCQQc5b0pGnJKB85-6" value="" style="endArrow=classic;startArrow=classic;html=1;rounded=0;strokeWidth=3;strokeColor=#FF0000;dashed=1;dashPattern=1 1;fontSize=14;entryX=1.002;entryY=0.39;entryDx=0;entryDy=0;entryPerimeter=0;edgeStyle=orthogonalEdgeStyle;curved=1;" parent="1" source="csZAQCQQc5b0pGnJKB85-5" target="35dKP0a0qPvihtCSCPD3-3" edge="1">
          <mxGeometry width="100" height="100" relative="1" as="geometry">
            <mxPoint x="500" y="450" as="sourcePoint" />
            <mxPoint x="367.2200000000002" y="267.46" as="targetPoint" />
          </mxGeometry>
        </mxCell>
        <mxCell id="csZAQCQQc5b0pGnJKB85-8" value="" style="endArrow=classic;startArrow=classic;html=1;rounded=0;entryX=0.615;entryY=0.991;entryDx=0;entryDy=0;entryPerimeter=0;exitX=0.616;exitY=0.01;exitDx=0;exitDy=0;exitPerimeter=0;strokeWidth=2;dashed=1;strokeColor=#FF0000;dashPattern=1 2;" parent="1" source="csZAQCQQc5b0pGnJKB85-3" target="csZAQCQQc5b0pGnJKB85-4" edge="1">
          <mxGeometry width="50" height="50" relative="1" as="geometry">
            <mxPoint x="610" y="760" as="sourcePoint" />
            <mxPoint x="660" y="710" as="targetPoint" />
          </mxGeometry>
        </mxCell>
        <mxCell id="csZAQCQQc5b0pGnJKB85-9" value="ETL/ELT" style="edgeLabel;html=1;align=center;verticalAlign=middle;resizable=0;points=[];fontStyle=1;labelBackgroundColor=none;fontColor=#666666;fontSize=13;" parent="1" vertex="1" connectable="0">
          <mxGeometry x="856.9399999999999" y="639.9999999999998" as="geometry" />
        </mxCell>
        <mxCell id="csZAQCQQc5b0pGnJKB85-10" value="ETL/ELT" style="edgeLabel;html=1;align=center;verticalAlign=middle;resizable=0;points=[];fontStyle=1;labelBackgroundColor=none;fontColor=#666666;fontSize=13;" parent="1" vertex="1" connectable="0">
          <mxGeometry x="450" y="489.9999999999998" as="geometry">
            <mxPoint x="-2" as="offset" />
          </mxGeometry>
        </mxCell>
        <mxCell id="csZAQCQQc5b0pGnJKB85-12" value="" style="strokeColor=#dddddd;shadow=1;strokeWidth=1;rounded=1;absoluteArcSize=1;arcSize=2;" parent="1" vertex="1">
          <mxGeometry x="539" y="880" width="131" height="60" as="geometry" />
        </mxCell>
        <mxCell id="csZAQCQQc5b0pGnJKB85-13" value="Data&lt;div&gt;Catalog&lt;/div&gt;" style="editableCssRules=.*;html=1;fontColor=#999999;shape=image;verticalLabelPosition=middle;verticalAlign=middle;labelPosition=right;align=left;spacingLeft=20;part=1;points=[];imageAspect=0;image=data:image/svg+xml,PHN2ZyB4bWxucz0iaHR0cDovL3d3dy53My5vcmcvMjAwMC9zdmciIHhtbG5zOnY9Imh0dHBzOi8vdmVjdGEuaW8vbmFubyIgd2lkdGg9IjM3Ni4yNzQ4ODc3NTcyNjMyIiBoZWlnaHQ9IjMzOS42NzM1NDQyMTc3NjM4MyIgdmlld0JveD0iMC4xMTQwMDAwMDAwNTk2MDQ2NCAtMC4wOTAwMDAwMDM1NzYyNzg2OSA5OS41NTU5OTk3NTU4NTkzOCA4OS44NzE5OTQwMTg1NTQ2OSI+JiN4YTs8c3R5bGUgdHlwZT0idGV4dC9jc3MiPiYjeGE7CS5zdDB7ZmlsbDojNDI4NWY0O30mI3hhOwkuc3Qxe2ZpbGw6I2FlY2JmYTt9JiN4YTs8L3N0eWxlPiYjeGE7CTxwYXRoIGNsYXNzPSJzdDAiIGQ9Ik03Ny41MjMgNDMuMzk3bDEyLjg0NCA3LjU3MnYxNC43NjdsLTEyLjg0NCA2LjY4ek01MC4zMTItLjA5bDEyLjg0NCA3LjU3MnYxNC43NjdsLTEyLjg0NCA2LjY4ek0yMy4xIDQzLjM5N2wxMi44NDQgNy41NzJ2MTQuNzY3TDIzLjEgNzIuNDE3em02OS40Ny0uNTExbDcuMS0xMS4xNjktMTIuNjY2LTIxLjU5NEg3MC42NDR2OS41aDEwLjkxOWw2Ljk3NyAxMS44OTUtNC4yNTYgNi42OTR6bS03Ni45NzktNC42TDExLjMgMzEuNDg1bDcuMjY0LTExLjg2MWg5Ljk3OWwuMDk5LTkuNUgxMy4yNDFMLjExNCAzMS41NjFsMS41NzYgMi40OTggNS41MTUgOC43Mzl6bTEzLjY2MiAzOS40NDlsNy42MDMgMTIuMDQ3aDI1LjkwMmw3LjczMy0xMi4xNjQtOC4xNDMtNC44OTktNC44MDggNy41NjRINDIuMDk1bC00Ljc0LTcuNTExeiIvPiYjeGE7CTxwYXRoIGNsYXNzPSJzdDEiIGQ9Ik03Ny41MjMgNDMuMzk3bC0xMi44NDQgNy41NzJ2MTQuNzY3bDEyLjg0NCA2LjY4ek01MC4zMTItLjA5TDM3LjQ2OCA3LjQ4MnYxNC43NjdsMTIuODQ0IDYuNjh6TTIzLjEgNDMuMzk3bC0xMi44NDQgNy41NzJ2MTQuNzY3bDEyLjg0NCA2LjY4eiIvPiYjeGE7PC9zdmc+;" parent="csZAQCQQc5b0pGnJKB85-12" vertex="1">
          <mxGeometry width="30" height="30" relative="1" as="geometry">
            <mxPoint x="15" y="16" as="offset" />
          </mxGeometry>
        </mxCell>
        <mxCell id="csZAQCQQc5b0pGnJKB85-14" value="" style="strokeColor=#dddddd;shadow=1;strokeWidth=1;rounded=1;absoluteArcSize=1;arcSize=2;" parent="1" vertex="1">
          <mxGeometry x="691.44" y="880" width="130" height="60" as="geometry" />
        </mxCell>
        <mxCell id="csZAQCQQc5b0pGnJKB85-15" value="Cloud&#xa;Composer" style="editableCssRules=.*;html=1;fontColor=#999999;shape=image;verticalLabelPosition=middle;verticalAlign=middle;labelPosition=right;align=left;spacingLeft=20;part=1;points=[];imageAspect=0;image=data:image/svg+xml,PHN2ZyB4bWxucz0iaHR0cDovL3d3dy53My5vcmcvMjAwMC9zdmciIHhtbG5zOnY9Imh0dHBzOi8vdmVjdGEuaW8vbmFubyIgd2lkdGg9IjE0LjY0MDAwMDM0MzMyMjc1NCIgaGVpZ2h0PSIyMCIgdmlld0JveD0iMCAwIDE0LjY0MDAwMDM0MzMyMjc1NCAyMCI+JiN4YTsJPHN0eWxlIHR5cGU9InRleHQvY3NzIj4mI3hhOwkuc3Qwe2ZpbGw6I2FlY2JmYTt9JiN4YTsJLnN0MXtmaWxsOiM0Mjg1ZjQ7fSYjeGE7CTwvc3R5bGU+JiN4YTsJPHBhdGggY2xhc3M9InN0MCIgZD0iTTAgMGgxNC42M3YzLjk0aC01LjN2NS4zM0g1LjM1VjMuOTZIMHoiLz4mI3hhOwk8cGF0aCBjbGFzcz0ic3QxIiBkPSJNMy45NSAxMC42N2g1LjM0VjIwSDUuMzV2LTUuMzVIMFY1LjM3aDMuOTV6TTE0LjY0IDIwSDEwLjdWNS4zNmgzLjk0eiIvPiYjeGE7CTxwYXRoIGNsYXNzPSJzdDAiIGQ9Ik0wIDE2LjA2aDMuOTJWMjBIMHoiLz4mI3hhOzwvc3ZnPg==;" parent="csZAQCQQc5b0pGnJKB85-14" vertex="1">
          <mxGeometry width="22" height="30" relative="1" as="geometry">
            <mxPoint x="19" y="15" as="offset" />
          </mxGeometry>
        </mxCell>
        <mxCell id="csZAQCQQc5b0pGnJKB85-20" value="Cloud&#xa;Data Fusion" style="editableCssRules=.*;html=1;fontColor=#999999;shape=image;verticalLabelPosition=middle;verticalAlign=middle;labelPosition=right;align=left;spacingLeft=20;part=1;points=[];imageAspect=0;image=data:image/svg+xml,PHN2ZyB4bWxucz0iaHR0cDovL3d3dy53My5vcmcvMjAwMC9zdmciIHhtbG5zOnY9Imh0dHBzOi8vdmVjdGEuaW8vbmFubyIgd2lkdGg9IjM3Ny4wNDk2OTgzMjc3ODkyNiIgaGVpZ2h0PSIzNzcuMjkxNTcwNzE1Nzg5NzYiIHZpZXdCb3g9IjAuMTMxMDAwNTE4Nzk4ODI4MTIgLTAuMTIxMDAwMDA2Nzk0OTI5NSA5OS43NjEwMDE1ODY5MTQwNiA5OS44MjQ5OTY5NDgyNDIxOSI+JiN4YTs8c3R5bGUgdHlwZT0idGV4dC9jc3MiPiYjeGE7CS5zdDB7ZmlsbDojNjY5ZGY2O30mI3hhOwkuc3Qxe2ZpbGw6IzQyODVmNDt9JiN4YTsJLnN0MntmaWxsOiNhZWNiZmE7fSYjeGE7PC9zdHlsZT4mI3hhOwk8cGF0aCBjbGFzcz0ic3QwIiBkPSJNODAuNTkzIDE5LjE4djIwLjE5OWgxOS4yOTlWOS41M2MwLTIuNTM3LS45NzktNC44NDYtMi41OC02LjU2OHptLTkuOTA4IDYxLjIyNUgxOS40MzFMMy40NSA5Ny4zMzdjMS42OTUgMS40NzQgMy45MDggMi4zNjcgNi4zMzEgMi4zNjdoNzAuNTU1YzIuODczIDAgNS40NTMtMS4yNTYgNy4yMjEtMy4yNDh6Ii8+JiN4YTsJPHBhdGggY2xhc3M9InN0MSIgZD0iTTg3LjU3MyA5Ni40MzdjMS41MDEtMS43MDEgMi40MTMtMy45MzUgMi40MTMtNi4zODJWNjAuMjA0SDcwLjY4NXYyMC4yMDF6Ii8+JiN4YTsJPHBhdGggY2xhc3M9InN0MiIgZD0iTTE5LjQzMSA4MC40MDVWMjkuMzRoMjAuNTc4VjEwLjA0SDkuNzgxYy01LjMzIDAtOS42NSA0LjMyMS05LjY1IDkuNjV2NzAuMzY1Yy4wMDEgMi45MDYgMS4yODYgNS41MTMgMy4zMiA3LjI4MXptNzcuODgtNzcuNDQzQzk1LjU1IDEuMDY2IDkzLjAzNi0uMTIgOTAuMjQ0LS4xMjFINTkuOTUxVjE5LjE4aDIwLjY0M3oiLz4mI3hhOzwvc3ZnPg==;" parent="1" vertex="1">
          <mxGeometry x="910" y="415" width="30" height="30" as="geometry" />
        </mxCell>
        <mxCell id="csZAQCQQc5b0pGnJKB85-21" value="" style="endArrow=classic;startArrow=classic;html=1;rounded=0;exitX=1;exitY=0.5;exitDx=0;exitDy=0;entryX=0;entryY=0.5;entryDx=0;entryDy=0;strokeWidth=2;dashed=1;strokeColor=#0000FF;" parent="1" source="wJ6JWf97kPDAMJd_mPwP-7" target="wJ6JWf97kPDAMJd_mPwP-28" edge="1">
          <mxGeometry width="50" height="50" relative="1" as="geometry">
            <mxPoint x="760" y="500" as="sourcePoint" />
            <mxPoint x="810" y="450" as="targetPoint" />
          </mxGeometry>
        </mxCell>
        <mxCell id="csZAQCQQc5b0pGnJKB85-26" value="" style="shape=image;verticalLabelPosition=bottom;labelBackgroundColor=default;verticalAlign=top;aspect=fixed;imageAspect=0;image=data:image/png,iVBORw0KGgoAAAANSUhEUgAAAS4AAACOCAYAAACPK+UZAAAAGXRFWHRTb2Z0d2FyZQBBZG9iZSBJbWFnZVJlYWR5ccllPAAAFkFJREFUeNrsnX2MHOV9x5/dvfXd2T6/4ztSBKScjWIJG0p5t1uc9AjntEjx8RIVJ04MVCqWDxUklzgSslM1OK5Cix2QCokpjZNKOMc/IF9ClNgKJDGphOEQRbIPBUc4vjOc8bt9L7vT/c7Nc352dp7Z2d2Z2ZnZ7wdGu7e78+zM+OZ739/v+T3PkzIMQziRKiCc0b1OCCHV4ihEhkag0rxehJC40eTitFIacaPjIoQE7bjylh45Oq8ml3AwZYlWWhGrFIWLEBKwcOUtnTGsLa91XIrTkkKVsQlXWiNcFDJCSK0Oy1BES254LWfpU151Xk0ap5W1hKv52LFjTyxYsGB9YccMrzUhJFA1M4zcJ5988szChQv/pfDjmCVc45Yu5YRD6CefN1nC1TQ0NPTt9vb2DbychJAwGR4e3tHR0bG58HTCEq4JS7gMJ+HKWMI1Hc9zudyf0uk0nRYhJFTy+Xwuk8l81hKrM5ZwjVnClVd7DNO2LUvRIoTUA0t7sqK4k3BKr3Q5LhkuEkJIvZhh6dCYpUsy1+VYgCqVjW6LEFJPZGVDykmknBwX67UIIfVGq0NNorRXkcJFCImScJVsHKtICIkqo9aGnkX0KspKeg6yJoTEDwoXISSqjFtbTlwsPtU6Lua3CCFRwVGP6LgIIVFFzgxh2DYKFyEkflC4CCEULkIIoXARQgiFixBC4SKEEAoXIYRQuAghFC5CCKFwEUJIRTTF+eCHThpi+EQ+ksfWPictOmZzyCchFC6LF18fEz8fmBDDJ41IH2d7Qbi+uLRJrF0xjb9phPhISgkX5aoazYWtDY+GYRyM0sEODufFtldGxQfH8rG6yFctTIuNf9csOtsZmRPiWZxSqcViciLB09ajnOImPjkuhIWP7roQO9ECOGYc+1DEHSIhcSE2wvXE7gvi7Gh8b3wcO86BENIgwoV8VhydlpPzwrkQQhIuXGcuGOKZX4wl5oLjXHBOhJAEC1ff/47HOkR0ChlxToSQ6ol0OQSS2f/9evJucpzTF5dmWedVIVu3bhXHjx8XN910k+jp6YnVsR86dEg8//zz5vOHHnpILFq0iP+gSRWuZ38xmtgLj3P79t0tDflLt2/fPvNGxiZpbW0VK1euFEuXLhXz5s3jnUniKVzvHM6J3xzMJfbC49xwjsuuyDTMLxuEateuXeL8+fMl7+G1PXv2mNuqVavE7bffzruTxE+4vvvqaOIvPhL1zz3Y2jCiJUMl6a5UcRoYGDCd2EcffWSKF6B4ER2RTM73/X488sN5/ADlETjXpAM31dfXZz5HGPjII4+UiBJCxN7eXnHZZZeZP+/du9fRmRESSeFCqcCLrzdOrxvONenlEW+++aaZVAdIqrvlsLq7u6fEDvsREotQETdyksofyoFzxTmv70ruQOz9+/ebj3BT5XrT8D5CSQgXwsdKw0UIJPaT4aYamuoS/9gHPZZSWNFr6cTGjRvNR10ODscMp4iQVz0ftIdjIAkVLpQ/vNyANU44554bk1keAVGQbquzs9PTPhCGasJECBaS/06CIhP/a9asMQXMb5CbQw7Pftyy95TlDwkWLsz80Kjg3J9ak7zyCNzQkvnz53vaR+d4vIoWnB1CTikW0oFBQPEZNZfmBxArtbdUdWT4Tnw3joH4R2RyXCgNeOePuYb9h8C54xokDdWBBFmfJUNDfIe9wBMOCx0C8vudXFktqDk8ODo1jMR3BuXyKFwRoBHKH3gNggFuRgoH3I5TPknmuaQL8tMBybbg4nQCVY2LJBEXLsxoWq/yB+SVUAQqt5kt9csz4Ro0QnlEkOGoWy5JFRV1n1odpWzLaw6P1E7dc1woBej7ffhTvWA6ZUyr3O6QEEdVOwZC1yN0e9Ecx9hUVwGNG0eOHJkKy9x67/AePqN2GNTKyMjI1HOvOTySAMeF6vEwyx8wfTKq1b+2IusoWuC2xRnx1P0tdSlRkOURSUEVEr/EQkclwuFXcSuLZBvQcWEO+dfeDc9tISxEz92MZm9uZvUNWTE9mxP/tidc54XyCLiuJMxRr/beqe7EDSS7pSB4qeOS4liJiPhVV0WX1YCO69mQJwjEghVeRUty57UtomtJLvHXJigQmsnevMHBQU/7yJorrwl02X45YYSwSdfnVw+nKoB0Xw0gXObsCCGWPyD8W3Z56UwMb7x/XnzrJyPikZ0fiydf/lQMnSg9pg13zhS5sbOhXh9cm6TMjnHzzTebj0hiq1PZOIH3pQB4LSGQrk5W2+tQ39PVcVUqPhAu2RZrtRIuXJPTMYfb9Y+J++zs6D8hNhVE6/WCeB34w6joP3BWrHtmWAwOFeeYZrSkTeELW7yeSch8ZOqQFwy2dhOH/v7+KUHwWkKgDuWBU9NNm4PhONJtqaKoJvV1wqoO43H6finMOvHiuMsECBd67MIuf7j2iuJThTjt/u0ZB1HNix17TpS83nlpVuRzY6GKF64RSkXiDkQBRZgAodrTTz9dciPjht++fftUaQHGDFaSh5IzoqJ9DL1RBQht4zW1SFQnPthPFSl1uJAO5OHU4lZ1f1mtTzfmL6En54dO1qf8wZ7bgsvSAfdl57rPNosXCo8QL1H4PzNtRjgiX7hWPTdkY18egfoqVLTjJsbNDOclp7qxU02lOdrHfmhfjhvUte0UJqI4FaIlh+jYhQr7IIemc4vyu3X7wz3SdcXYcb3467FIzP7Q1uJ+6vZwUSVM54VrlZRVjiAuW7ZsMavb7clx/IzX8X61w2Ow3+OPP262Y3d8eA3v6drWzRMmjwvjG90cIIQN+9u/WwqqrNon/pBSxAuZaySCmnFf49EwjIN+fhkKOh/9cX0WRf3lpmKHhCT8vd876vjZjjlN4qXHOope++nvzojtthAynZkWmvP6zwdaE1EeQYhncUqlFhceEP6cth7hJnKhO64oFVZ2zMmI7uucRWdTz9yS1w4dHa+r83o2QWtLElIroeW4sIJz1GZ/+ObquWbuavfvToujn+bM59/4/CzR2VHcA3n2Ql6bEwsr5yXLI9C7SQiFKwQmp2OOpmO487rp5ubGS4UwEb2NOsISL5RHLLu8leMYScMTSqhYj/IHv3j7w1Hxwq9Olf1cGGGjOXsEV8EmJHjhivNq1Kiq3/TjEc+fD0O8UB4xdNLgby6hcAVJVFejHjg8JgyjfIhbKUGLlzl7xK+ZqCcUrsCI8mrUP/zlSfGl7/xJ/OzAOe1nkPva/ViHuOfWmZESL8yokcRpngmJhHBFPR+DhPt3Xj4u7v3ekBkWOoFxihu654iXHrvU7HWMinj9bGCCv72EwhUEbx/Ox+IiDJ2YMAdbY4YIXcU86r6eXneJ2P7AJWaBar3FKykzRxASOeGK28KuGKOI2SEwvc1ZTfnDtVc2m1X1vavmiJkt5S9fUOLVSIvmEhKqcMUVTG9zTyF8xDAfHXffMtPMf+mq78MMGwmhcBET5L8wNhH5L9RyOYH8F6rv/+efOsStV7dSvAgJiUAr569amBYfHAsvz4VByLctLj6lweHaejaR/+r94cdmYn7zffPE3BmlQ27+bF6T2Lpmvjh2Mif++Ucj4oPhMa14+VVhr1vogxAKV43cdnUmFOHC+L31Xc2amznrSz4IYxidREtl4eyM+P6DCwpO7aQZbgYpXnaBJoTC5ROYAA+V3kEmkrGEGFbjcaPSBTJU4LSevH+BmO6xDRk+nglwYDbOZ+2KLH97ScMSaI4Lg4GDXJsQi7qWE61qQckDSh9QAjG9CuHbVBAvt17HWnJePTdywVhCxxUoWB8Qy8r7HTIin/W1AFwHxGZdISxEr6EOTEKIgdcon2hrTYnln2sV31g5q8R5oeLebYB2Nc4L4TAEmxAKV8DAdfk982nPjVlHQXny5eNTc8YvujRbCNvmlcyvpQNCs64gQDNcnBK+A7VecpqboROTkwwOfZozQ0SVe2+ZWXZmiUrFC7k8QhgqhsCyKzK+T4B3xzXFmouCUQiKutAFBAU9gk7V8OgJlCCPtXN9uzm0Z0aZolIIkdPcXEjG2+u+0JaXKnuvYSPWheREgoSEOAPqwwWn8JuD53wTQjs79zoLCl6D2Pzr3xcvlQ43BlHpXTXbDPW8oustBEjG20PMS+dmzJIKL+JVznk93BXPENG+XJgdrICDxSa8rqNISGjC1TE7Zeakgpqba/DouKug2Lnmimbx5Zv0eSw4uPc+GhM3drYUvY4cmG42VC9DgKoVLzjMpC6WgWW75LZ69WrtKtN+CShW7sGKP4TC5YkgyyPcRMMpXHPLeyHk21lwaSsKTswuXHhN57pWODg3zGVfq3ih/GF9VzIS8tu2bSv6GesUQrCwyjTWQ8SisFh/Ect6EaIj1D/hfpVHDJ8odTzdLvPGd//FdE/tYmjPA88Om0N94KqcFoZFaIkw00m07HPXI5HvJUx0Ei8155Xk8gesVYi1DLEmoXRacmFVQiIhXADlERgKVAuYutg+hz3yVE4Dns2Ve2ylCiXtFQTmWz8ZMRP56jJkEB37OEUk3Levu8SspEfb2DBThD2HBtzyYV7Fq1HKHxC+YeFUCBlcGBwYIZEIFSV+lEdgksKH/6b4hkY5AtwVnBIc06KOaa4r+CCPhRV83EoW8B6KUO3iZYqhy+LEaHv3b8/UdI4Qr3/8fOMM7YF4IUG/b98+M3zEqtBOq0fL8HL//v1Fzgz7YqVqNczE5/r6+or2xz4bN26c2qenp6fq9tU2t27daj5HqIvjlnk7CfZFG0774xjxWZl/wzXYs2eP9hjx2YGBgaJOD3lsXjo50D72R3ju5fwoXOJieUQtg59R1Ork3jBfFrZyYMpmGRK6ARHE/Fz2Gq1y9O78uGzb5Vh6+bRCCNpYxaa4cXBTAdyU+FkFryHJ7oQUCtzk1fZQ+tE+2pDnoAKhwFZuf4TK+JwTEFW879RLK9vHJt2rk8Bif1Ww7OeHPxgI3ylcDvhRHrHtlVHx1P0tBQfkPf/zh2Pj4j9ePeGYv9IhQz4v4gWnhdlUDx2tvfd0093zGy4EUHsUcXOpwoWbTooKPtfd3T3lDnAj9/f3m/vAveB16eCkSJTrVaymfZ2bwfvYX54PBAEOCsKD/bGvzrlh04kHjk+KDt7H56SgoX18D44V3wHxsvPcc89NuUj1O9Amzg/7oh0cn/2PRkPnuCSyPKIWBofz4qEfnNVOt1z0l2rMMHsK1+4Yrki0VPHC3Fy6xTUgWC/sPWVOQFhN+3ZQqvGZuY1ZbCoFwZ6gR+gG4CTsPY94rt6o8rOV4Ff7ECvsr4owxBOvqeKmA9/jJFoQJSlaEB0pWvKY4eTka3Bdapgqv1NeUxyL+h32Y5ZhKh2XA36URwyfSol/+MF5cceSM2L551pKikkhahCd/rfO1Ry6IVmPxTWwqQtnoF0/HNZUDq05LR78wizR6MBFqMyfP3/qxnQKgyB42HBz2vf1gl/t65yKLLKVrghtOH2Pbn8pRGhHF8rhdZmbw+fVkFSGnxBhXR4L+8teXWw6V9nQwiXLI7a9WptDSaUz4rX/gys6LozCf6jpwlZNKYJX/HBVOtbe3ibaWjk5rZ1K8lbVlFME3b4UDSlAcE9eE+EQOem2Ojs7PeUJ8Xkpjur+bt+J91QnR8elwa/ZIyBemeY2kRs9bTqgWt1VvcBkhF9Z3kanpXE98oYfHBw0SyaqcVblCLJ9NXysRPzUZDqcYTnnKBkZGTG/U93fzUXJujoKlwf8mj1CFS84rzjyzS/PFY0MhEKKhdMNhtyLW36oVoJu3w8qCd+chFf3ByFOREK4/CiPSIJ4ofzh+qtaGlq4VGdgH7MIQZGigpBG1kWpoJaq2jAu6PbBuXPV9aSrYlOJC5T7Vbs/hasMfs4eEVfxasTyBztq/ZI9FyPfkz1gQX13UO3bw8NKnJMa/pUTToSH9v0q2T8ORCYD7Ed5hJN4pUQ8xvg1cvmD6rZk4hpOxx7SSDcWVH1R0O0DtXC0klkwcC3k53XFqU4CrDouub9T8al6fBhVgM3tcxQuBZRH+LnsVlzEi+UPFyu65U22cuVKbdiju6Fw07m5iXIOp9b2nVyjTpjhJivNNcmwFe3o8nBqrZY9zJWCbB8qpCKPD9cqqOmFEidcKI/we0BxHMRr/Z2zG7b8ATcZbjY1d4QCTCeRUW88tUBSVo3rhurYhQnf4yROtbavCpRa4S4FQd0fVfWVoo5zxPE4HaN8zSk/h95CeV1xLKr4yT8cUnSjXhKRUsQLcQpiNVRWoj++2TCMg/U4qEd3XRDv/DHna5tGPhfJnNefL8yK/9rQnmhxKjcDqho6uU0kiJvTLgj2/aVw4Hlvb2+JSMqB0KoYyAHMtbSvtm0vPyiJLBzGKspB1sA+Z5n9GujGKkpklX+lYxUlURmrmEqlFhceUDB52npElXdOilVKcV/4uckSr6bNmzdvqFe+6+fvTvh8EdIilckKIzcWqZv6iXvmic/MS/YMEG+99ZZriIWbZPny5eKuu+4Ss2bpQ+ZsNmve8HjEjTcxMTEV1iC0vO+++8zE9IcffihOnTolrr/++qKbF8+vvPJK833ZswaRWbJkSc3to7033njDfI5zkY7qyJEjRY4O5+iUQ3v//fenPtvV1eV6DfC9uE44PvW6ol15HfE5neuU54hjxnmo/w6646sHW7Zs2WEJ1Zj1iOJMI7KOC3z3lVHx2rv+V75HyXndenWL2LpmgSDJCHml44rD7ApxwM1xRTaxsvavptW0AnUccl69X5rL305CqiCywoVwEVMWB6LkERCvr/51W8OXPxCSOOECfpdHREW8UP7wldva+NtHSBKFK4jyiCiIVyOXPxCSeOECmD0CKzgnRbxQ/vC3fzmDv3mE1HLfioj2Kqq8czjny+wRboTV2/jvX1/Q8AOpCfEkTnHsVVTB7BGrb8gGe5FCcF4Yj0jRIqQBQkXJ2hXZmtdjrKd4IUTkdMyENJhwIVH/1JoWccc1wVaZByFeXUunix0PXsKEPCF+3aciBjkuO8h5YUHYtw/na1poww0/cl6ojL/nFoaHhFQlTi45rlgKFyGksYWLsQshJHZQuAghFC5CCKFwEUIIhYsQQuEihBAKFyGEULgIIRQuQgihcBFCCIWLEELhIoQQChchhFC4CCEULkIIoXARQgiFixBC4SrGsDZCCKk3jnpEx0UIYahICCEULkIIcRAuQ7flCvASEULCxtIerTbZHVfRm++9994uXkJCSNhY2mMXLNdQMW9tuWXLln3/wIEDP6LzIoSE5bSgOdAeMbmGotSjIlLWBjLWhjXupxe2aYVttphcJLZVeT+l7EsIIbVgKI85azsvJhd/PVnYxgrbucI2obxvipTqtFKKwo1bHxaWeOWVzxBCiN8ClrNpz7iiO0XOK2VzUClLzLLW4zTlecYKLSlchJAghCtviZcUrTHl+YRQcl1NRgFTtVJTepQTF3NfGUUJ0xrhopARQqoNEe3ClVeclxoemqIl9arJYWdDsWg5RazSNodG4SKE+ClcUrzsIlbSq5iyBOziC5PWK6WIVdohnCSEEL+FzHBwX0VOS9JURg1zDspI4SKEBO3A8prXnR2XzXk5vsVrTAgJWLgmX9QIFMcqEkJix/8LMAB2Qn2GO0RgyQAAAABJRU5ErkJggg==;" parent="1" vertex="1">
          <mxGeometry x="851.4399999999999" y="875" width="148.88" height="70" as="geometry" />
        </mxCell>
        <mxCell id="csZAQCQQc5b0pGnJKB85-27" value="VPC 2" style="sketch=0;outlineConnect=0;gradientColor=none;html=1;whiteSpace=wrap;fontSize=12;fontStyle=0;shape=mxgraph.aws4.group;grIcon=mxgraph.aws4.group_vpc;strokeColor=#879196;fillColor=none;verticalAlign=top;align=left;spacingLeft=30;fontColor=#879196;dashed=1;" parent="1" vertex="1">
          <mxGeometry x="500" y="475" width="550" height="130" as="geometry" />
        </mxCell>
        <mxCell id="csZAQCQQc5b0pGnJKB85-28" value="ETL/ELT" style="edgeLabel;html=1;align=center;verticalAlign=middle;resizable=0;points=[];fontStyle=1;labelBackgroundColor=none;fontColor=#666666;fontSize=13;" parent="1" vertex="1" connectable="0">
          <mxGeometry x="390" y="439.94000000000005" as="geometry">
            <mxPoint x="-15" y="-72" as="offset" />
          </mxGeometry>
        </mxCell>
        <mxCell id="a-38s5Jq4CYPoX5IpqrW-1" value="On-Premise&lt;div&gt;Current on-premise infrastructure&lt;/div&gt;" style="sketch=0;outlineConnect=0;html=1;whiteSpace=wrap;fontSize=12;fontStyle=0;shape=mxgraph.aws4.group;grIcon=mxgraph.aws4.group_on_premise;strokeColor=none;fillColor=#f5f5f5;verticalAlign=top;align=left;spacingLeft=30;fontColor=#666666;dashed=1;" vertex="1" parent="1">
          <mxGeometry x="6.75" y="735" width="273.25" height="345" as="geometry" />
        </mxCell>
        <mxCell id="a-38s5Jq4CYPoX5IpqrW-2" value="BipPal" style="shape=datastore;whiteSpace=wrap;html=1;" vertex="1" parent="1">
          <mxGeometry x="175" y="970" width="60" height="60" as="geometry" />
        </mxCell>
        <mxCell id="a-38s5Jq4CYPoX5IpqrW-3" value="SA" style="shape=datastore;whiteSpace=wrap;html=1;" vertex="1" parent="1">
          <mxGeometry x="40" y="970" width="60" height="60" as="geometry" />
        </mxCell>
        <mxCell id="a-38s5Jq4CYPoX5IpqrW-5" value="CAS" style="shape=datastore;whiteSpace=wrap;html=1;" vertex="1" parent="1">
          <mxGeometry x="40" y="830" width="60" height="60" as="geometry" />
        </mxCell>
        <mxCell id="a-38s5Jq4CYPoX5IpqrW-6" value="CAS" style="shape=datastore;whiteSpace=wrap;html=1;" vertex="1" parent="1">
          <mxGeometry x="50" y="840" width="60" height="60" as="geometry" />
        </mxCell>
        <mxCell id="a-38s5Jq4CYPoX5IpqrW-7" value="CAS" style="shape=datastore;whiteSpace=wrap;html=1;" vertex="1" parent="1">
          <mxGeometry x="60" y="850" width="60" height="60" as="geometry" />
        </mxCell>
        <mxCell id="a-38s5Jq4CYPoX5IpqrW-8" value="CAS" style="shape=datastore;whiteSpace=wrap;html=1;" vertex="1" parent="1">
          <mxGeometry x="70" y="860" width="60" height="60" as="geometry" />
        </mxCell>
        <mxCell id="a-38s5Jq4CYPoX5IpqrW-10" value="Decision model" style="verticalLabelPosition=bottom;sketch=0;html=1;fillColor=#A153A0;strokeColor=#ffffff;verticalAlign=top;align=center;points=[[0,0.5,0],[0.125,0.25,0],[0.25,0,0],[0.5,0,0],[0.75,0,0],[0.875,0.25,0],[1,0.5,0],[0.875,0.75,0],[0.75,1,0],[0.5,1,0],[0.125,0.75,0]];pointerEvents=1;shape=mxgraph.cisco_safe.compositeIcon;bgIcon=mxgraph.cisco_safe.design.blank_device;resIcon=mxgraph.cisco_safe.design.flow_collector;fontColor=#666666;" vertex="1" parent="1">
          <mxGeometry x="165" y="840" width="80" height="70" as="geometry" />
        </mxCell>
        <mxCell id="a-38s5Jq4CYPoX5IpqrW-11" value="" style="endArrow=classic;startArrow=classic;html=1;rounded=0;entryX=1;entryY=0.5;entryDx=0;entryDy=0;exitX=0;exitY=0.5;exitDx=0;exitDy=0;" edge="1" parent="1" source="a-38s5Jq4CYPoX5IpqrW-2" target="a-38s5Jq4CYPoX5IpqrW-3">
          <mxGeometry width="50" height="50" relative="1" as="geometry">
            <mxPoint x="340" y="1090" as="sourcePoint" />
            <mxPoint x="750" y="760" as="targetPoint" />
          </mxGeometry>
        </mxCell>
        <mxCell id="a-38s5Jq4CYPoX5IpqrW-12" value="" style="endArrow=classic;startArrow=classic;html=1;rounded=0;entryX=0.983;entryY=0.883;entryDx=0;entryDy=0;exitX=0.15;exitY=0.05;exitDx=0;exitDy=0;entryPerimeter=0;exitPerimeter=0;" edge="1" parent="1" source="a-38s5Jq4CYPoX5IpqrW-2" target="a-38s5Jq4CYPoX5IpqrW-8">
          <mxGeometry width="50" height="50" relative="1" as="geometry">
            <mxPoint x="185" y="1010" as="sourcePoint" />
            <mxPoint x="110" y="1010" as="targetPoint" />
          </mxGeometry>
        </mxCell>
      </root>
    </mxGraphModel>
  </diagram>
</mxfile>
